<svg xmlns="http://www.w3.org/2000/svg" viewBox="0 0 253.89 254"><defs><style>.cls-1{fill:#0F9BBF;}.cls-2{fill:none;}.cls-3{fill:#0CBABB;}.cls-4{fill:#fff;}.cls-5{fill:#0B69B4;}.cls-6{fill:#86CDB6;}.cls-7{fill:#214A9C;}</style></defs><title>Asset 130</title><g id="Layer_2" data-name="Layer 2"><g id="Layer_1-2" data-name="Layer 1"><path class="cls-1" d="M65,126.51A30.15,30.15,0,0,1,82,110.6,64.78,64.78,0,0,1,62.44,66.17a60.08,60.08,0,0,0-54,39.53A30.22,30.22,0,0,0,65,126.47Z"/><path class="cls-2" d="M122.76,138v0Z"/><path class="cls-2" d="M122.63,141.87v-.14A.66.66,0,0,1,122.63,141.87Z"/><path class="cls-3" d="M122.41,143.56a29.88,29.88,0,0,1-2.3,7.78A60.45,60.45,0,0,1,9.88,101.69,30.23,30.23,0,0,0,65,126.51,30.15,30.15,0,0,1,82,110.6a64.73,64.73,0,0,0,39,18.19h0c1.29.13,2.59.21,3.9.26a60,60,0,0,1-2.51,14.62A.37.37,0,0,0,122.41,143.56Z"/><path class="cls-4" d="M127.4,129.11c-1.12,0-2.23,0-3.31-.08a59.14,59.14,0,1,1-61.61-61.6c-.06-1.1-.09-2.2-.09-3.31,0-.85,0-1.68.06-2.54a65,65,0,1,0,67.48,67.47C129.08,129.08,128.25,129.11,127.4,129.11Z"/><path class="cls-5" d="M126.57,65a30.12,30.12,0,0,1,15.91,17,64.78,64.78,0,0,1,44.43-19.59,60.08,60.08,0,0,0-39.55-54A30.22,30.22,0,0,0,126.6,65Z"/><path class="cls-2" d="M111.21,122.63h0Z"/><path class="cls-1" d="M109.53,122.41a30.16,30.16,0,0,1-7.78-2.3A60.45,60.45,0,1,1,151.4,9.88,30.22,30.22,0,0,0,126.58,65a30.15,30.15,0,0,1,15.9,17,64.82,64.82,0,0,0-18.19,39h0c-.12,1.29-.2,2.59-.25,3.9a60,60,0,0,1-14.62-2.51Z"/><path class="cls-4" d="M124,127.39c0-1.12,0-2.23.09-3.31a59.14,59.14,0,1,1,61.6-61.55c1.1-.06,2.2-.08,3.31-.08.86,0,1.69,0,2.54.06A65,65,0,1,0,124,129.93C124,129.08,124,128.24,124,127.39Z"/><path class="cls-3" d="M127.34,189a30.14,30.14,0,0,1-15.91-17A64.7,64.7,0,0,1,67,191.48a60,60,0,0,0,39.54,54.12A30.22,30.22,0,0,0,127.31,189Z"/><path class="cls-2" d="M142.7,131.37h0Z"/><path class="cls-6" d="M144.39,131.59a30.09,30.09,0,0,1,7.77,2.3,60.45,60.45,0,1,1-49.65,110.23h0A30.23,30.23,0,0,0,127.34,189a30.14,30.14,0,0,1-15.91-17,64.79,64.79,0,0,0,18.21-39h0c.13-1.29.2-2.59.26-3.9a60,60,0,0,1,14.62,2.51Z"/><path class="cls-4" d="M129.87,129.89a11.9,11.9,0,0,1-5.81,0,11.22,11.22,0,0,1,0-5.81,8.77,8.77,0,0,1,5.81,0A7.88,7.88,0,0,1,129.87,129.89Z"/><path class="cls-7" d="M188.9,127.45a30.15,30.15,0,0,1-17,15.9,64.76,64.76,0,0,1,19.59,44.44,60.07,60.07,0,0,0,54-39.56,30.22,30.22,0,0,0-56.59-20.76Z"/><path class="cls-2" d="M131.14,115.92v0Z"/><path class="cls-2" d="M131.26,112.08v.15A.75.75,0,0,1,131.26,112.08Z"/><path class="cls-5" d="M131.48,110.4a30.16,30.16,0,0,1,2.3-7.78A60.45,60.45,0,1,1,244,152.29a30.23,30.23,0,0,0-55.11-24.83,30.17,30.17,0,0,1-17,15.91,64.76,64.76,0,0,0-39-18.19h0c-1-.1-2-.17-3.07-.22-.27,0,0-.51-.26-.51,0-.33-.56-.19-.52-.52a60.22,60.22,0,0,1,2.46-13.63S131.48,110.36,131.48,110.4Z"/><path class="cls-4" d="M126.51,124.84c1.12,0,2.21,0,3.31.1a59.14,59.14,0,1,1,61.6,61.58c.05,1.1.08,2.2.08,3.31,0,.85,0,1.68-.06,2.54A65,65,0,1,0,124,124.9C124.81,124.88,125.65,124.84,126.51,124.84Z"/><path class="cls-4" d="M129.94,126.61c0,1.12,0,2.23-.08,3.31a59.14,59.14,0,1,1-61.61,61.49c-1.12.05-2.14.1-3.25.1-.86,0-1.75,0-2.6-.09a65,65,0,1,0,67.47-67.35C129.91,124.92,129.94,125.76,129.94,126.61Z"/></g></g></svg>