<svg id="Layer_1" data-name="Layer 1" xmlns="http://www.w3.org/2000/svg" xmlns:xlink="http://www.w3.org/1999/xlink" viewBox="0 0 1075.61 320.01"><defs><style>.cls-1{fill:#fff;}.cls-2{fill:url(#linear-gradient);}</style><linearGradient id="linear-gradient" x1="492.55" y1="366.67" x2="573.87" y2="5.69" gradientUnits="userSpaceOnUse"><stop offset="0.57" stop-color="#fff"/><stop offset="0.93" stop-color="#fff" stop-opacity="0"/></linearGradient></defs><title>Artboard 1 copy 3</title><path class="cls-1" d="M44.82,180.39a17.6,17.6,0,0,1,3.29.74l-1.3,9.08a41.86,41.86,0,0,0-4.18-.69,35.09,35.09,0,0,0-4.1-.23,17.12,17.12,0,0,0-4.16.46,10.35,10.35,0,0,0-3.27,1.42,9.3,9.3,0,0,0-2.61,2.35,13.57,13.57,0,0,0-1.81,3.27v25.72H17.49V180.86h8.6l.39,5.77v1a18.9,18.9,0,0,1,6.1-5.5,15.81,15.81,0,0,1,7.87-2A30.43,30.43,0,0,1,44.82,180.39Z"/><path class="cls-1" d="M67.19,221.74a19.32,19.32,0,0,1-6.57-4.27,18.64,18.64,0,0,1-4.21-6.37,21,21,0,0,1-1.49-7.95v-1.58a24.39,24.39,0,0,1,1.57-8.86,20.17,20.17,0,0,1,4.24-6.77A18.71,18.71,0,0,1,67,181.61a19.07,19.07,0,0,1,7.6-1.52,19.61,19.61,0,0,1,8,1.52,16.18,16.18,0,0,1,5.81,4.21A18.47,18.47,0,0,1,92,192.33a27.08,27.08,0,0,1,1.19,8.24v4H64.2v.2a16.62,16.62,0,0,0,1.29,4.54,11.33,11.33,0,0,0,2.43,3.31A10.82,10.82,0,0,0,71.58,215a12.29,12.29,0,0,0,4.6.84,15.29,15.29,0,0,0,6.39-1.33,12.8,12.8,0,0,0,4.92-3.82l4.93,4.78A18.54,18.54,0,0,1,86,220.9a21,21,0,0,1-10.37,2.38A22.36,22.36,0,0,1,67.19,221.74Zm3.69-33.47a9.5,9.5,0,0,0-3,2,12,12,0,0,0-2.19,3.23,16.44,16.44,0,0,0-1.31,4.28H84v-.62a10.28,10.28,0,0,0-.65-3.6,9.77,9.77,0,0,0-1.85-3.12,8.55,8.55,0,0,0-2.91-2.1,9.93,9.93,0,0,0-4.06-.79A9.1,9.1,0,0,0,70.88,188.27Z"/><path class="cls-1" d="M111.38,187.75H100.22v-6.89h11.16v-2.55a19.34,19.34,0,0,1,1.25-7.18,14.4,14.4,0,0,1,3.57-5.21,15.39,15.39,0,0,1,5.56-3.16,23.13,23.13,0,0,1,7.29-1.08,18.56,18.56,0,0,1,2.8.14c.92.14,1.8.2,2.67.32.72.11,1.45.23,2.2.37L139,163l-.73,7.36a29.62,29.62,0,0,0-3.49-.73,28.27,28.27,0,0,0-4.41-.31,14.22,14.22,0,0,0-4.44.61,7.51,7.51,0,0,0-3.06,1.81,7.06,7.06,0,0,0-1.68,2.77,12.3,12.3,0,0,0-.56,3.85v2.55h15.44v6.89H120.62v34.76h-9.24Z"/><path class="cls-1" d="M170.61,163.38v51.51h12.63v7.62H148.16v-7.62h13.17V171H148.16v-7.66Z"/><path class="cls-1" d="M202.31,221.74a19.27,19.27,0,0,1-6.56-4.27,18.66,18.66,0,0,1-4.22-6.37,21,21,0,0,1-1.48-7.95v-1.58a24.36,24.36,0,0,1,1.54-8.86,20.24,20.24,0,0,1,4.23-6.77,18.71,18.71,0,0,1,6.26-4.33,19.07,19.07,0,0,1,7.6-1.52,19.61,19.61,0,0,1,8,1.52,16.21,16.21,0,0,1,5.82,4.21,18.45,18.45,0,0,1,3.54,6.51,27.08,27.08,0,0,1,1.19,8.24v4h-28.9v.2a16.24,16.24,0,0,0,1.31,4.58,11.44,11.44,0,0,0,2.42,3.31,10.91,10.91,0,0,0,3.64,2.39,12.29,12.29,0,0,0,4.6.84,15.29,15.29,0,0,0,6.39-1.33,12.63,12.63,0,0,0,4.89-3.79l4.93,4.78a18.6,18.6,0,0,1-6.37,5.39,21,21,0,0,1-10.38,2.38A22.44,22.44,0,0,1,202.31,221.74Zm3.7-33.47a9.33,9.33,0,0,0-3,2,12,12,0,0,0-2.19,3.23,17.24,17.24,0,0,0-1.31,4.28h19.6v-.62a10.29,10.29,0,0,0-.66-3.6,9.68,9.68,0,0,0-1.85-3.14,8.6,8.6,0,0,0-2.9-2.1,10.15,10.15,0,0,0-4.07-.79A9.19,9.19,0,0,0,206,188.27Z"/><path class="cls-1" d="M259.15,215.37a9,9,0,0,0,2.83-1.48,7.46,7.46,0,0,0,1.91-2.27,6,6,0,0,0,.71-2.89h8.66a11.75,11.75,0,0,1-1.36,5.72,14.68,14.68,0,0,1-3.8,4.6,18.65,18.65,0,0,1-5.56,3.14,19.29,19.29,0,0,1-6.6,1.13,19.94,19.94,0,0,1-8.41-1.67,17.12,17.12,0,0,1-6-4.53,19.3,19.3,0,0,1-3.66-6.64,26.18,26.18,0,0,1-1.23-8.1V201a26.45,26.45,0,0,1,1.21-8.09,19.09,19.09,0,0,1,3.64-6.66,17.65,17.65,0,0,1,6-4.52,19.73,19.73,0,0,1,8.37-1.67,20.85,20.85,0,0,1,7,1.15,16.68,16.68,0,0,1,5.52,3.23,14.64,14.64,0,0,1,3.6,5,14.92,14.92,0,0,1,1.25,6.35h-8.66a8.14,8.14,0,0,0-.63-3.19,7.94,7.94,0,0,0-1.79-2.62,9.18,9.18,0,0,0-2.83-1.77,9.45,9.45,0,0,0-3.53-.66,9,9,0,0,0-4.79,1.18,8.79,8.79,0,0,0-3,3.06,12.62,12.62,0,0,0-1.68,4.31,25.51,25.51,0,0,0-.48,4.93v1.35a26.23,26.23,0,0,0,.48,5,12.78,12.78,0,0,0,1.64,4.3,8.52,8.52,0,0,0,3,3.08,9.18,9.18,0,0,0,4.81,1.15A10.53,10.53,0,0,0,259.15,215.37Z"/><path class="cls-1" d="M300.84,180.86h15.65v6.89H300.84v19.9a11.81,11.81,0,0,0,.55,3.87A6.05,6.05,0,0,0,303,214a5.78,5.78,0,0,0,2.39,1.31,11.7,11.7,0,0,0,3,.38,17.38,17.38,0,0,0,2.47-.12c.85-.12,1.66-.17,2.46-.3s1.5-.23,2.18-.37l1.71-.36,1,6.35a11.25,11.25,0,0,1-2.41,1.06,28,28,0,0,1-3,.75c-1.08.2-2.2.36-3.37.48a34.06,34.06,0,0,1-3.48.17,18.7,18.7,0,0,1-5.8-.86,11.71,11.71,0,0,1-4.52-2.72,12.2,12.2,0,0,1-2.94-4.66,19.45,19.45,0,0,1-1.06-6.85V187.75H281.49v-6.89h10.09V170.69h9.24Z"/><path class="cls-1" d="M350.69,180.86v34h12.24v7.62H328.59v-7.62h12.82V188.52H328.59v-7.66ZM341,168a4.61,4.61,0,0,1,1.12-1.64,4.89,4.89,0,0,1,1.67-1A6.41,6.41,0,0,1,346,165a5.15,5.15,0,0,1,3.37,1,4.5,4.5,0,0,1,.91,5.66,4.14,4.14,0,0,1-2.47,1.68,4,4,0,0,1-1.92,1,4.94,4.94,0,0,1-2.47-.19,3.7,3.7,0,0,1-2.09-1.52,4.53,4.53,0,0,1-.72-2.56A5.25,5.25,0,0,1,341,168Z"/><path class="cls-1" d="M371.09,192.89a19.87,19.87,0,0,1,3.82-6.72,17.26,17.26,0,0,1,6-4.47,21.5,21.5,0,0,1,16.34,0,17.67,17.67,0,0,1,6.11,4.47,20,20,0,0,1,3.77,6.72,26.08,26.08,0,0,1,1.31,8.41v.81a26,26,0,0,1-1.31,8.43,19.92,19.92,0,0,1-3.77,6.7,17.15,17.15,0,0,1-6.07,4.46,21.41,21.41,0,0,1-16.34,0,17.07,17.07,0,0,1-6.08-4.46,19.78,19.78,0,0,1-3.82-6.7,26.24,26.24,0,0,1-1.31-8.43v-.81A26.12,26.12,0,0,1,371.09,192.89Zm8.49,14.53a13.33,13.33,0,0,0,1.87,4.39,9.5,9.5,0,0,0,12.24,3,9.08,9.08,0,0,0,3.16-3,13.77,13.77,0,0,0,1.83-4.39,22.58,22.58,0,0,0,.6-5.31v-.81a21.58,21.58,0,0,0-.62-5.24,14.66,14.66,0,0,0-1.81-4.39,9.91,9.91,0,0,0-3.18-3,9.78,9.78,0,0,0-9.08,0,9.48,9.48,0,0,0-3.14,3,13.55,13.55,0,0,0-1.87,4.39,22.58,22.58,0,0,0-.59,5.24v.81A22.8,22.8,0,0,0,379.58,207.42Z"/><path class="cls-1" d="M418.49,180.86h8.32l.57,5.92a17.91,17.91,0,0,1,1.87-2.21,16.63,16.63,0,0,1,2.18-1.83,15.12,15.12,0,0,1,8.66-2.65,17.6,17.6,0,0,1,5.85.92,11.2,11.2,0,0,1,4.54,2.93,13.5,13.5,0,0,1,2.93,5.1,23.76,23.76,0,0,1,1,7.49v26h-9.2V196.68a13.68,13.68,0,0,0-.58-4.31,6.17,6.17,0,0,0-4.39-4.26,13.4,13.4,0,0,0-3.62-.44,10.85,10.85,0,0,0-3.15.44,10.11,10.11,0,0,0-2.66,1.25,9.92,9.92,0,0,0-1.73,1.51,11.68,11.68,0,0,0-1.43,1.92v29.72h-9.16Z"/><path class="cls-1" d="M491.05,209.31a5,5,0,0,0-1.59-1.62,16.75,16.75,0,0,0-3.12-1.31,41.71,41.71,0,0,0-4.82-1.15,47,47,0,0,1-6.6-1.81,21.3,21.3,0,0,1-5.14-2.62,11.19,11.19,0,0,1-3.31-3.47,9,9,0,0,1-1.19-4.65,10.22,10.22,0,0,1,1.21-4.84,12.5,12.5,0,0,1,3.48-4,17.24,17.24,0,0,1,5.41-2.73,23.52,23.52,0,0,1,7.07-1,25.5,25.5,0,0,1,7.47,1,17.61,17.61,0,0,1,5.62,2.79,12.43,12.43,0,0,1,3.5,4.19,11.47,11.47,0,0,1,1.23,5.24h-9.2a5.27,5.27,0,0,0-.48-2.21,6,6,0,0,0-1.4-1.91,7.89,7.89,0,0,0-2.78-1.6,12.05,12.05,0,0,0-4-.59,13.54,13.54,0,0,0-3.64.44,7.63,7.63,0,0,0-2.56,1.21,4.63,4.63,0,0,0-1.5,1.64,4.09,4.09,0,0,0-.5,2,4.35,4.35,0,0,0,.42,1.94,3.75,3.75,0,0,0,1.5,1.53,11.15,11.15,0,0,0,2.79,1.27,33.61,33.61,0,0,0,4.53,1,55.75,55.75,0,0,1,7,1.69,22.26,22.26,0,0,1,5.39,2.46,11.72,11.72,0,0,1,3.46,3.62,9.46,9.46,0,0,1,1.23,4.93,10.24,10.24,0,0,1-1.29,5.08,12,12,0,0,1-3.63,4,19,19,0,0,1-5.7,2.58,27.31,27.31,0,0,1-7.36.92,24.68,24.68,0,0,1-8-1.19,18.4,18.4,0,0,1-5.84-3.16,13.07,13.07,0,0,1-3.62-4.43,11.33,11.33,0,0,1-1.23-5.08h8.93a6.36,6.36,0,0,0,1,3.25,7.09,7.09,0,0,0,2.29,2.14,9.09,9.09,0,0,0,3.08,1.21,16.54,16.54,0,0,0,3.51.37,15.89,15.89,0,0,0,4.18-.5,7.77,7.77,0,0,0,2.86-1.35,4.77,4.77,0,0,0,1.38-1.55,3.75,3.75,0,0,0,.44-1.83A3.83,3.83,0,0,0,491.05,209.31Z"/><path class="cls-1" d="M586.63,180.86h8.47l.35,4.27a14.37,14.37,0,0,1,1.85-1.89,12.15,12.15,0,0,1,2.15-1.46,13.67,13.67,0,0,1,3.31-1.25,16.07,16.07,0,0,1,3.85-.44,15.55,15.55,0,0,1,7.07,1.54,14.22,14.22,0,0,1,5.14,4.35,20.57,20.57,0,0,1,3.12,6.71A32.51,32.51,0,0,1,623,201.3v.81A31.7,31.7,0,0,1,622,210.5a20,20,0,0,1-3.13,6.7,15,15,0,0,1-5.12,4.47,14.66,14.66,0,0,1-7,1.61,17.13,17.13,0,0,1-4.1-.46,13.83,13.83,0,0,1-3.45-1.35,13.33,13.33,0,0,1-1.77-1.23,14.92,14.92,0,0,1-1.58-1.5v19.79h-9.2ZM613.25,196a13.9,13.9,0,0,0-1.71-4.34,8.91,8.91,0,0,0-3-2.92,8.66,8.66,0,0,0-4.43-1.08,10.81,10.81,0,0,0-2.66.31,7.86,7.86,0,0,0-2.19.88,7.41,7.41,0,0,0-1.94,1.54,10.34,10.34,0,0,0-1.45,2.08V211a9.45,9.45,0,0,0,1.31,2,8.67,8.67,0,0,0,1.77,1.54,10.14,10.14,0,0,0,2.35,1,10.85,10.85,0,0,0,2.89.36,8.4,8.4,0,0,0,4.41-1.09,8.79,8.79,0,0,0,3-3,13.76,13.76,0,0,0,1.73-4.41,24.44,24.44,0,0,0,.54-5.25v-.81A23.4,23.4,0,0,0,613.25,196Z"/><path class="cls-1" d="M663.41,180.39a17.6,17.6,0,0,1,3.29.74l-1.3,9.08a41.86,41.86,0,0,0-4.18-.69,35.09,35.09,0,0,0-4.1-.23,17.12,17.12,0,0,0-4.16.46,10.35,10.35,0,0,0-3.27,1.42,9.34,9.34,0,0,0-2.62,2.35,13.57,13.57,0,0,0-1.81,3.27v25.72h-9.2V180.86h8.62l.39,5.77v1a18.9,18.9,0,0,1,6.1-5.5,15.81,15.81,0,0,1,7.87-2A30.43,30.43,0,0,1,663.41,180.39Z"/><path class="cls-1" d="M674.74,192.89a19.58,19.58,0,0,1,3.81-6.72,17.23,17.23,0,0,1,6.05-4.47,21.5,21.5,0,0,1,16.34,0,17.72,17.72,0,0,1,6.1,4.47,20,20,0,0,1,3.77,6.72,25.81,25.81,0,0,1,1.31,8.41v.81a26,26,0,0,1-1.31,8.43,19.92,19.92,0,0,1-3.77,6.7A17,17,0,0,1,701,221.7a19.68,19.68,0,0,1-8.15,1.62,19.91,19.91,0,0,1-8.2-1.62,17.07,17.07,0,0,1-6.08-4.46,19.5,19.5,0,0,1-3.81-6.7,26.24,26.24,0,0,1-1.31-8.43v-.81A26.36,26.36,0,0,1,674.74,192.89Zm8.49,14.53a13.33,13.33,0,0,0,1.87,4.39,8.77,8.77,0,0,0,7.73,4.08,8.87,8.87,0,0,0,4.51-1.1,9.17,9.17,0,0,0,3.16-3,13.53,13.53,0,0,0,1.82-4.39,22.58,22.58,0,0,0,.6-5.31v-.81a22.07,22.07,0,0,0-.61-5.24,15.2,15.2,0,0,0-1.81-4.39,9.91,9.91,0,0,0-3.18-3,9.8,9.8,0,0,0-9.09,0,9.45,9.45,0,0,0-3.13,3,13.55,13.55,0,0,0-1.87,4.39,22.59,22.59,0,0,0-.6,5.24v.81A22.81,22.81,0,0,0,683.23,207.42Z"/><path class="cls-1" d="M743.26,180.86v42.31a20,20,0,0,1-1.16,7.14,12.76,12.76,0,0,1-3.35,5,14,14,0,0,1-5.35,3,24,24,0,0,1-7.24,1H724a21,21,0,0,1-2.1-.15l-1.56-.2c-.56-.08-1.06-.16-1.6-.27l.54-7.5c.36.07.83.14,1.43.21s1.2.11,1.84.13,1.21.09,1.77.1h1.31a12.11,12.11,0,0,0,3.28-.43,6.67,6.67,0,0,0,2.65-1.38,6.81,6.81,0,0,0,1.77-2.62,10.71,10.71,0,0,0,.66-4V188.52H722.08v-7.66Zm-8.7-14.38a5.08,5.08,0,0,1,3.93-1.44,5.37,5.37,0,0,1,4,1.45,5,5,0,0,1,1.42,3.64,4.85,4.85,0,0,1-1.42,3.58,5.4,5.4,0,0,1-4,1.42,5.22,5.22,0,0,1-3.9-1.42,4.88,4.88,0,0,1-1.41-3.58A5,5,0,0,1,734.56,166.48Z"/><path class="cls-1" d="M769.17,221.74a19.32,19.32,0,0,1-6.57-4.27,18.64,18.64,0,0,1-4.21-6.37,21,21,0,0,1-1.48-7.95v-1.58a24.36,24.36,0,0,1,1.54-8.86,20,20,0,0,1,4.23-6.77,18.71,18.71,0,0,1,6.26-4.33,19.07,19.07,0,0,1,7.6-1.52,19.61,19.61,0,0,1,8,1.52,16.18,16.18,0,0,1,5.81,4.21,18.47,18.47,0,0,1,3.55,6.51,27.08,27.08,0,0,1,1.19,8.24v4H766.18v.2a17,17,0,0,0,1.31,4.58,11.33,11.33,0,0,0,2.43,3.31,10.76,10.76,0,0,0,3.64,2.39,12.29,12.29,0,0,0,4.6.84,15.29,15.29,0,0,0,6.39-1.33,12.63,12.63,0,0,0,4.89-3.79l4.93,4.78a18.54,18.54,0,0,1-6.38,5.39,21,21,0,0,1-10.37,2.38A22.44,22.44,0,0,1,769.17,221.74Zm3.69-33.47a9.5,9.5,0,0,0-3,2,12,12,0,0,0-2.19,3.23,16.44,16.44,0,0,0-1.31,4.28H786v-.62a10.28,10.28,0,0,0-.65-3.6,9.77,9.77,0,0,0-1.81-3.12,8.55,8.55,0,0,0-2.91-2.1,9.74,9.74,0,0,0-4.06-.79A9.19,9.19,0,0,0,772.86,188.27Z"/><path class="cls-1" d="M826,215.37a9.45,9.45,0,0,0,2.83-1.48,7.71,7.71,0,0,0,1.91-2.27,6,6,0,0,0,.71-2.89h8.66a11.64,11.64,0,0,1-1.37,5.72,14.51,14.51,0,0,1-3.79,4.6,18.65,18.65,0,0,1-5.56,3.14,19.29,19.29,0,0,1-6.6,1.13,20,20,0,0,1-8.42-1.67,17.12,17.12,0,0,1-6-4.53,19.3,19.3,0,0,1-3.66-6.64,26.18,26.18,0,0,1-1.23-8.1V201A26.45,26.45,0,0,1,804.7,193a19.09,19.09,0,0,1,3.64-6.66,17.65,17.65,0,0,1,6-4.52,19.51,19.51,0,0,1,8.38-1.67,20.36,20.36,0,0,1,7,1.15,16.46,16.46,0,0,1,5.53,3.23,14.64,14.64,0,0,1,3.6,5,14.92,14.92,0,0,1,1.25,6.35h-8.61a7.94,7.94,0,0,0-.64-3.19,7.74,7.74,0,0,0-1.79-2.62,9,9,0,0,0-2.83-1.77,9.21,9.21,0,0,0-3.52-.66,8.43,8.43,0,0,0-7.79,4.24,12.6,12.6,0,0,0-1.67,4.31,25.51,25.51,0,0,0-.48,4.93v1.35a26.23,26.23,0,0,0,.48,5,12.78,12.78,0,0,0,1.64,4.3,8.44,8.44,0,0,0,3,3.08A9.18,9.18,0,0,0,822.7,216,10.62,10.62,0,0,0,826,215.37Z"/><path class="cls-1" d="M867.69,180.86h15.67v6.89H867.69v19.9a11.82,11.82,0,0,0,.56,3.87,5.67,5.67,0,0,0,4,3.76,11.27,11.27,0,0,0,3,.38q1.2,0,2.46-.12c.85-.07,1.67-.17,2.47-.3s1.49-.23,2.17-.37l1.72-.36,1,6.35a11.25,11.25,0,0,1-2.41,1.06,30.58,30.58,0,0,1-3,.75c-1.08.2-2.2.36-3.37.48a34.06,34.06,0,0,1-3.48.17,18.7,18.7,0,0,1-5.8-.86,11.64,11.64,0,0,1-4.52-2.72,12.26,12.26,0,0,1-3-4.66,19.91,19.91,0,0,1-1.06-6.85V187.75H848.37v-6.89h10.12V170.69h9.24Z"/><path class="cls-1" d="M917.55,180.86v34h12.24v7.62h-34.3v-7.62h12.82V188.52H895.49v-7.66ZM907.81,168a4.46,4.46,0,0,1,1.11-1.64,4.72,4.72,0,0,1,1.68-1,6.41,6.41,0,0,1,2.21-.37,5.15,5.15,0,0,1,3.37,1,4,4,0,0,1,1.48,2.72,3.86,3.86,0,0,1-.58,2.94,19.12,19.12,0,0,1-4.38,2.64,4.94,4.94,0,0,1-2.47-.19,3.75,3.75,0,0,1-2.1-1.52,4.65,4.65,0,0,1-.71-2.56A5.43,5.43,0,0,1,907.81,168Z"/><path class="cls-1" d="M938,192.89a19.58,19.58,0,0,1,3.81-6.72,17.23,17.23,0,0,1,6-4.47,21.5,21.5,0,0,1,16.34,0,17.72,17.72,0,0,1,6.1,4.47,19.86,19.86,0,0,1,3.78,6.72,26.08,26.08,0,0,1,1.31,8.41v.81a26,26,0,0,1-1.31,8.43,19.94,19.94,0,0,1-3.78,6.7,17,17,0,0,1-6.06,4.46,21.41,21.41,0,0,1-16.34,0,17,17,0,0,1-6.09-4.46,19.5,19.5,0,0,1-3.81-6.7,26.24,26.24,0,0,1-1.31-8.43v-.81A26.36,26.36,0,0,1,938,192.89Zm8.54,14.53a13.33,13.33,0,0,0,1.87,4.39,9.5,9.5,0,0,0,12.24,3,9.08,9.08,0,0,0,3.16-3,13.77,13.77,0,0,0,1.83-4.39,23.11,23.11,0,0,0,.59-5.31v-.81a22,22,0,0,0-.69-5.24,15.2,15.2,0,0,0-1.81-4.39,9.91,9.91,0,0,0-3.18-3,9,9,0,0,0-4.56-1.12,8.82,8.82,0,0,0-4.52,1.12,9.48,9.48,0,0,0-3.14,3,13.46,13.46,0,0,0-1.79,4.39,22.59,22.59,0,0,0-.6,5.24v.81A22.81,22.81,0,0,0,946.49,207.42Z"/><path class="cls-1" d="M985.3,180.86h8.31l.58,5.92a17.91,17.91,0,0,1,1.87-2.21,17.22,17.22,0,0,1,2.17-1.83,15.23,15.23,0,0,1,8.67-2.65,17.6,17.6,0,0,1,5.85.92,11.2,11.2,0,0,1,4.54,2.93,13.5,13.5,0,0,1,2.93,5.1,23.76,23.76,0,0,1,1,7.49v26H1012V196.68a14,14,0,0,0-.58-4.31,6.48,6.48,0,0,0-1.7-2.77,6.32,6.32,0,0,0-2.69-1.49,13.4,13.4,0,0,0-3.62-.44,10.91,10.91,0,0,0-3.16.44,10.37,10.37,0,0,0-2.65,1.25,9.63,9.63,0,0,0-1.74,1.51,12.7,12.7,0,0,0-1.42,1.92v29.72h-9.2Z"/><rect class="cls-2" x="534.83" width="8.54" height="320.01"/><path class="cls-1" d="M1057.91,209.31a5,5,0,0,0-1.6-1.62,16.66,16.66,0,0,0-3.11-1.31,41.71,41.71,0,0,0-4.82-1.15,47,47,0,0,1-6.6-1.81,21.3,21.3,0,0,1-5.14-2.62,11.19,11.19,0,0,1-3.31-3.47,8.82,8.82,0,0,1-1.19-4.65,10.22,10.22,0,0,1,1.21-4.84,12.5,12.5,0,0,1,3.48-4,17.24,17.24,0,0,1,5.41-2.73,23.52,23.52,0,0,1,7.07-1,25.5,25.5,0,0,1,7.47,1,17.92,17.92,0,0,1,5.62,2.79,12.43,12.43,0,0,1,3.5,4.19,11.47,11.47,0,0,1,1.23,5.24h-9.2a5.27,5.27,0,0,0-.48-2.21,5.65,5.65,0,0,0-1.41-1.91,7.76,7.76,0,0,0-2.77-1.6,12.05,12.05,0,0,0-4-.59,13.54,13.54,0,0,0-3.64.44,7.63,7.63,0,0,0-2.56,1.21,4.63,4.63,0,0,0-1.5,1.64,4.09,4.09,0,0,0-.5,2,4.35,4.35,0,0,0,.42,1.94,3.75,3.75,0,0,0,1.5,1.53,11.15,11.15,0,0,0,2.79,1.27,33.61,33.61,0,0,0,4.53,1,55.75,55.75,0,0,1,7,1.69,21.89,21.89,0,0,1,5.39,2.46,11.64,11.64,0,0,1,3.47,3.62,9.46,9.46,0,0,1,1.23,4.93,10.24,10.24,0,0,1-1.29,5.08,12,12,0,0,1-3.64,4,18.89,18.89,0,0,1-5.69,2.58,27.31,27.31,0,0,1-7.36.92,25,25,0,0,1-8-1.19,18.35,18.35,0,0,1-5.83-3.16,13.07,13.07,0,0,1-3.62-4.43,11.33,11.33,0,0,1-1.23-5.08h8.93a6.36,6.36,0,0,0,1,3.25,7,7,0,0,0,2.29,2.14,9.09,9.09,0,0,0,3.08,1.21,16.54,16.54,0,0,0,3.51.37,15.82,15.82,0,0,0,4.17-.5,7.89,7.89,0,0,0,2.87-1.35,5,5,0,0,0,1.33-1.52,3.75,3.75,0,0,0,.44-1.83A3.81,3.81,0,0,0,1057.91,209.31Z"/><path class="cls-1" d="M14.29,102.11h5.47l5.93,17.34L26,121l.35-1.59,5.86-17.34h5.48L28.36,126H23.7Z"/><path class="cls-1" d="M60.33,102.11v19.53h7V126H47.64v-4.37H55V106.5H47.64v-4.39Zm-5.59-7.37a2.54,2.54,0,0,1,.64-.94,2.73,2.73,0,0,1,1-.59A3.6,3.6,0,0,1,57.61,93a2.92,2.92,0,0,1,1.93.61,2.58,2.58,0,0,1,.52,3.25,2.32,2.32,0,0,1-1.41,1,2.33,2.33,0,0,1-1.11.55,2.79,2.79,0,0,1-1.41-.11,2.14,2.14,0,0,1-1.21-.87,2.66,2.66,0,0,1-.4-1.47A3,3,0,0,1,54.74,94.74Z"/><path class="cls-1" d="M96,101.84a10.5,10.5,0,0,1,1.89.42l-.75,5.22a23.1,23.1,0,0,0-2.4-.4,20.58,20.58,0,0,0-2.35-.14,9.76,9.76,0,0,0-2.39.27,5.87,5.87,0,0,0-1.87.82,5.26,5.26,0,0,0-1.51,1.35,7.86,7.86,0,0,0-1,1.88V126H80.29v-23.9h4.95l.23,3.31,0,.55a11,11,0,0,1,3.5-3.16,9.12,9.12,0,0,1,4.52-1.15A16.73,16.73,0,0,1,96,101.84Z"/><path class="cls-1" d="M118.14,102.11h9v4h-9v11.43a6.51,6.51,0,0,0,.32,2.22,3.35,3.35,0,0,0,.89,1.4,3.4,3.4,0,0,0,1.37.75,6.4,6.4,0,0,0,1.75.22,13.58,13.58,0,0,0,1.41-.07c.49,0,1-.1,1.42-.17s.86-.13,1.25-.21l1-.21.57,3.65a6.35,6.35,0,0,1-1.38.6,13.67,13.67,0,0,1-1.73.43c-.62.12-1.27.21-1.94.28a19.13,19.13,0,0,1-2,.1,10.65,10.65,0,0,1-3.32-.5,6.64,6.64,0,0,1-2.6-1.55,7.19,7.19,0,0,1-1.69-2.68,11.42,11.42,0,0,1-.61-3.93V106.06H107v-4h5.79V96.27h5.31Z"/><path class="cls-1" d="M153.44,122.68a9,9,0,0,1-3,2.79,7.7,7.7,0,0,1-3.91,1,9.42,9.42,0,0,1-3.39-.59,6.54,6.54,0,0,1-2.64-1.82,8.32,8.32,0,0,1-1.68-3.17,15.72,15.72,0,0,1-.6-4.63V102.11h5.28v14.2a13.55,13.55,0,0,0,.24,2.78,4.31,4.31,0,0,0,.78,1.78,2.87,2.87,0,0,0,1.35,1,5.79,5.79,0,0,0,1.92.29,7.56,7.56,0,0,0,2-.26,5.78,5.78,0,0,0,1.59-.69,4.81,4.81,0,0,0,1-.94,5.72,5.72,0,0,0,.75-1.21V102.11h5.3V126h-4.79Z"/><path class="cls-1" d="M183.52,124.94c-.1-.42-.18-.85-.26-1.31a9.58,9.58,0,0,1-1.25,1.09,7.58,7.58,0,0,1-1.55.9,9.9,9.9,0,0,1-1.86.62,10.34,10.34,0,0,1-2.14.22,10.23,10.23,0,0,1-3.4-.54,7.92,7.92,0,0,1-2.61-1.49,6.44,6.44,0,0,1-1.72-2.25,6.73,6.73,0,0,1-.6-2.84,7.5,7.5,0,0,1,.78-3.48,6.7,6.7,0,0,1,2.29-2.51,10.66,10.66,0,0,1,3.43-1.41,20.37,20.37,0,0,1,4.63-.49h3.85v-1.61a4.3,4.3,0,0,0-.32-1.68,3.85,3.85,0,0,0-.92-1.3,4.35,4.35,0,0,0-1.56-.85,6.76,6.76,0,0,0-2.11-.3,6.3,6.3,0,0,0-1.89.26,3.85,3.85,0,0,0-1.33.73,2.55,2.55,0,0,0-.79,1,3.33,3.33,0,0,0-.25,1.29h-5.31a6.44,6.44,0,0,1,.69-2.76,6.93,6.93,0,0,1,1.94-2.34,9.5,9.5,0,0,1,3.06-1.65,13.36,13.36,0,0,1,4.17-.61,14.45,14.45,0,0,1,3.92.52,9.27,9.27,0,0,1,3.15,1.54,7.16,7.16,0,0,1,2.08,2.57,8.2,8.2,0,0,1,.75,3.59v10.63a17,17,0,0,0,.23,2.91,8.81,8.81,0,0,0,.68,2.22V126h-5.4A3.93,3.93,0,0,1,183.52,124.94Zm-4.11-3a7.9,7.9,0,0,0,1.62-.69,5.34,5.34,0,0,0,1.26-1,4.31,4.31,0,0,0,.82-1.1v-4.42H179.7a12.42,12.42,0,0,0-3,.32,5.21,5.21,0,0,0-2,.92,3.15,3.15,0,0,0-1,1.21,3.74,3.74,0,0,0-.32,1.59,3.58,3.58,0,0,0,.26,1.36,2.88,2.88,0,0,0,.78,1.07,3.47,3.47,0,0,0,1.26.7,5.5,5.5,0,0,0,1.76.25A6.69,6.69,0,0,0,179.41,122Z"/><path class="cls-1" d="M213.09,92.07v29.57h7.24V126H200.2v-4.37h7.56V96.47H200.2v-4.4Z"/></svg>