<svg xmlns="http://www.w3.org/2000/svg" viewBox="0 0 774.83 180.91"><title>Asset 129</title><g id="Layer_2" data-name="Layer 2"><g id="Layer_1-2" data-name="Layer 1"><path d="M0,77.05V73H10.93L11.54,78a12.15,12.15,0,0,1,3.66-4.19,8.5,8.5,0,0,1,5-1.52,11.48,11.48,0,0,1,1.53.11,10.21,10.21,0,0,1,1.21.24l-.83,5.91-3.62-.2a7.24,7.24,0,0,0-4.22,1.18,7.53,7.53,0,0,0-2.64,3.3v20l5.25.91v4.06H0v-4.06l5.26-.91V78Z"/><path d="M44.11,108.52q-7.29,0-11.59-4.86T28.21,91.07V89.66a17.87,17.87,0,0,1,4.44-12.4,13.64,13.64,0,0,1,10.49-5q7,0,10.66,4.26c2.41,2.83,3.62,6.62,3.62,11.34v4H34.79l-.1.16a13.86,13.86,0,0,0,2.55,8.27,8.11,8.11,0,0,0,6.87,3.24,15.85,15.85,0,0,0,5.66-.92A12.84,12.84,0,0,0,54,100.1l2.49,4.13a15.42,15.42,0,0,1-5,3A20,20,0,0,1,44.11,108.52Zm-1-31.21A6.9,6.9,0,0,0,37.69,80a12.75,12.75,0,0,0-2.77,6.75l.06.17H51.07v-.84a9.76,9.76,0,0,0-2-6.26A7.13,7.13,0,0,0,43.14,77.31Z"/><path d="M64.56,77.66V73H70V68.54c0-3.72,1-6.59,2.91-8.63s4.66-3,8.14-3a15.06,15.06,0,0,1,2.21.17c.74.12,1.57.29,2.47.5L85,62.38a14.09,14.09,0,0,0-1.4-.23,15.53,15.53,0,0,0-1.69-.09,5,5,0,0,0-4.16,1.66,7.46,7.46,0,0,0-1.35,4.82V73h7.28v4.71H76.36v25.21l5.25.91v4.06H64.75v-4.06l5.26-.91V77.66Z"/><path d="M91.88,61.64v-4.1h11.6v45.33l5.26.91v4.06H91.88v-4.06l5.25-.91V62.54Z"/><path d="M130.33,108.52q-7.28,0-11.59-4.86t-4.3-12.59V89.66a17.91,17.91,0,0,1,4.43-12.4,13.67,13.67,0,0,1,10.5-5q7,0,10.65,4.26c2.42,2.83,3.63,6.62,3.63,11.34v4H121l-.1.16a13.72,13.72,0,0,0,2.55,8.27,8.1,8.1,0,0,0,6.86,3.24,15.81,15.81,0,0,0,5.66-.92,12.78,12.78,0,0,0,4.21-2.53l2.48,4.13a15.2,15.2,0,0,1-5,3A19.93,19.93,0,0,1,130.33,108.52Zm-1-31.21A6.88,6.88,0,0,0,123.92,80a12.68,12.68,0,0,0-2.77,6.75l.06.17H137.3v-.84a9.76,9.76,0,0,0-2-6.26A7.13,7.13,0,0,0,129.37,77.31Z"/><path d="M167.39,103.55a8.55,8.55,0,0,0,5.56-2,6,6,0,0,0,2.4-4.79h5.71l.06.2q.16,4.51-4,8a14.68,14.68,0,0,1-9.72,3.5q-7.6,0-11.62-5a19.19,19.19,0,0,1-4-12.48V89.72a19.17,19.17,0,0,1,4-12.43q4-5,11.61-5a19.4,19.4,0,0,1,7.53,1.39,15.2,15.2,0,0,1,5.53,3.8l.29,7.74h-5.06l-1.39-5.48a8.55,8.55,0,0,0-2.9-1.78,11.19,11.19,0,0,0-4-.67q-5,0-7.14,3.59a17,17,0,0,0-2.15,8.82v1.35a17.15,17.15,0,0,0,2.13,8.92Q162.36,103.55,167.39,103.55Z"/><path d="M200.35,64.54V73H207v4.71h-6.61V98.84a4.71,4.71,0,0,0,1,3.45,3.65,3.65,0,0,0,2.69,1,13.37,13.37,0,0,0,1.89-.14c.69-.1,1.28-.2,1.75-.31l.87,4.35a8.07,8.07,0,0,1-2.64,1,17.15,17.15,0,0,1-3.48.37,8.23,8.23,0,0,1-6.16-2.34c-1.53-1.56-2.29-4-2.29-7.34V77.66h-5.51V73H194V64.54Z"/><path d="M216,103.78l5.25-.91V78l-5.25-.9V73h11.6v29.92l5.26.91v4.06H216ZM227.6,64h-6.35V57.54h6.35Z"/><path d="M238.57,90.08q0-7.74,4.19-12.76a15.5,15.5,0,0,1,22.81,0q4.2,5,4.21,12.77v.7q0,7.81-4.2,12.77a14.1,14.1,0,0,1-11.38,5q-7.24,0-11.44-5t-4.19-12.76Zm6.35.7a16.54,16.54,0,0,0,2.34,9.16,8.41,8.41,0,0,0,13.81,0,16.46,16.46,0,0,0,2.35-9.16v-.7A16.5,16.5,0,0,0,261.07,81a8.39,8.39,0,0,0-13.83,0,16.66,16.66,0,0,0-2.32,9.13Z"/><path d="M275.69,103.78l5.26-.91V78l-5.26-.9V73h10.93l.46,5.2a12.65,12.65,0,0,1,4.36-4.31,11.7,11.7,0,0,1,6-1.53q5.65,0,8.74,3.3t3.1,10.21v17.05l5.25.91v4.06H297.65v-4.06l5.26-.91V86q0-4.62-1.83-6.55t-5.56-1.93a9,9,0,0,0-4.85,1.32,9.68,9.68,0,0,0-3.37,3.61v20.47l5.26.91v4.06H275.69Z"/><path d="M347.79,83.92H343l-1-4.19A8.49,8.49,0,0,0,339.06,78a11.22,11.22,0,0,0-4-.66,7.34,7.34,0,0,0-5,1.48,4.67,4.67,0,0,0-1.64,3.58,4,4,0,0,0,1.45,3.26c1,.79,2.93,1.5,5.9,2.12q6.62,1.43,9.83,3.86a7.77,7.77,0,0,1,3.23,6.53,9,9,0,0,1-3.76,7.51,15.76,15.76,0,0,1-9.82,2.87,25.6,25.6,0,0,1-7.12-.92,18.81,18.81,0,0,1-5.64-2.66l0-8h4.78l1.19,4.68a6.56,6.56,0,0,0,3,1.45,16.54,16.54,0,0,0,3.85.45,9,9,0,0,0,5.31-1.37,4.21,4.21,0,0,0,1.92-3.59,4.33,4.33,0,0,0-1.6-3.45c-1.06-.91-3.08-1.69-6.05-2.36q-6.35-1.38-9.57-3.77A7.6,7.6,0,0,1,322,82.56a9.1,9.1,0,0,1,3.62-7.25,14.31,14.31,0,0,1,9.43-3,22.85,22.85,0,0,1,7.13,1,14.93,14.93,0,0,1,5.25,2.87Z"/><line x1="385.17" y1="180.91" x2="385.17"/><rect x="378.42" width="6.75" height="180.91"/><path d="M412.66,117.74l5.26-.91V78.53l-5.26-.9v-4.1h10.71l.58,4.26a11.72,11.72,0,0,1,4.24-3.64A12.65,12.65,0,0,1,434,72.89,11.6,11.6,0,0,1,444.05,78q3.6,5.14,3.59,13.59v.68q0,7.55-3.61,12.17a11.94,11.94,0,0,1-10,4.63,13.84,13.84,0,0,1-5.66-1.08,11,11,0,0,1-4.14-3.21v12l5.25.91v4.09H412.66Zm28.6-26.12a18.52,18.52,0,0,0-2.32-9.77,7.59,7.59,0,0,0-6.9-3.8,8.53,8.53,0,0,0-4.64,1.22,9.21,9.21,0,0,0-3.13,3.36v17a8.81,8.81,0,0,0,3.11,3.34,8.91,8.91,0,0,0,4.72,1.17,7.82,7.82,0,0,0,6.84-3.29,14.47,14.47,0,0,0,2.32-8.54Z"/><path d="M454.19,77.63v-4.1h10.93l.61,5.07a12.15,12.15,0,0,1,3.66-4.19,8.5,8.5,0,0,1,5-1.52,11.72,11.72,0,0,1,1.53.11,8.26,8.26,0,0,1,1.21.25l-.84,5.9-3.61-.2a7.24,7.24,0,0,0-4.22,1.18,7.62,7.62,0,0,0-2.65,3.3v20l5.26.91v4.06H454.19v-4.06l5.25-.91V78.53Z"/><path d="M482.44,90.66q0-7.74,4.19-12.76a15.5,15.5,0,0,1,22.81,0q4.21,5,4.21,12.77v.7q0,7.81-4.19,12.77a14.13,14.13,0,0,1-11.38,5q-7.26,0-11.45-5t-4.19-12.76Zm6.35.7a16.54,16.54,0,0,0,2.34,9.16,8.41,8.41,0,0,0,13.81,0,16.46,16.46,0,0,0,2.36-9.16v-.7a16.5,16.5,0,0,0-2.36-9.13,8.39,8.39,0,0,0-13.83,0,16.66,16.66,0,0,0-2.32,9.13Z"/><path d="M530.91,111.29q0,5.38-2.78,8.3a10.09,10.09,0,0,1-7.7,2.92,10.65,10.65,0,0,1-1.87-.15,12.25,12.25,0,0,1-1.74-.43l.42-5a6.8,6.8,0,0,0,1.32.28,12.47,12.47,0,0,0,1.42.11,4.18,4.18,0,0,0,3.33-1.42c.83-1,1.24-2.48,1.24-4.61V78.53l-5.25-.9v-4.1h11.61Zm-.2-46.81h-6.35V58.12h6.35Z"/><path d="M556.35,109.1q-7.29,0-11.59-4.86t-4.31-12.59V90.24a17.87,17.87,0,0,1,4.44-12.4,13.64,13.64,0,0,1,10.49-5q7,0,10.66,4.26c2.42,2.83,3.63,6.62,3.63,11.34v4H547l-.09.16a13.79,13.79,0,0,0,2.54,8.27,8.12,8.12,0,0,0,6.87,3.24,15.85,15.85,0,0,0,5.66-.92,13,13,0,0,0,4.21-2.53l2.48,4.13a15.42,15.42,0,0,1-5,3A19.93,19.93,0,0,1,556.35,109.1Zm-1-31.21a6.9,6.9,0,0,0-5.45,2.69,12.75,12.75,0,0,0-2.77,6.75l.07.17h16.08v-.84a9.7,9.7,0,0,0-2-6.26A7.13,7.13,0,0,0,555.38,77.89Z"/><path d="M593.4,104.13a8.6,8.6,0,0,0,5.57-1.95,6,6,0,0,0,2.4-4.79h5.7l.07.2q.17,4.51-4,8a14.72,14.72,0,0,1-9.73,3.5q-7.6,0-11.62-5a19.24,19.24,0,0,1-4-12.48V90.3a19.12,19.12,0,0,1,4-12.43q4-5,11.6-5a19.33,19.33,0,0,1,7.53,1.39,15.11,15.11,0,0,1,5.53,3.8l.29,7.74h-5.06l-1.39-5.48a8.55,8.55,0,0,0-2.9-1.78,11.15,11.15,0,0,0-4-.67q-5,0-7.14,3.59a17,17,0,0,0-2.14,8.82v1.35a17.15,17.15,0,0,0,2.13,8.92Q588.38,104.13,593.4,104.13Z"/><path d="M626.37,65.12v8.41H633v4.71h-6.61V99.42a4.76,4.76,0,0,0,1,3.45,3.68,3.68,0,0,0,2.7,1,13.34,13.34,0,0,0,1.88-.14c.7-.1,1.29-.2,1.76-.31l.87,4.35a8.07,8.07,0,0,1-2.64,1,17.32,17.32,0,0,1-3.49.37,8.19,8.19,0,0,1-6.15-2.34c-1.53-1.56-2.29-4-2.29-7.34V78.24H614.5V73.53H620V65.12Z"/><path d="M642,104.36l5.26-.91V78.53l-5.26-.9v-4.1h11.61v29.92l5.26.91v4.06H642ZM653.62,64.6h-6.35V58.12h6.35Z"/><path d="M664.58,90.66q0-7.74,4.19-12.76a15.5,15.5,0,0,1,22.81,0q4.21,5,4.21,12.77v.7q0,7.81-4.19,12.77a14.12,14.12,0,0,1-11.38,5q-7.26,0-11.45-5t-4.19-12.76Zm6.35.7a16.54,16.54,0,0,0,2.34,9.16,8.42,8.42,0,0,0,13.82,0,16.55,16.55,0,0,0,2.35-9.16v-.7a16.58,16.58,0,0,0-2.35-9.13,8.4,8.4,0,0,0-13.84,0,16.74,16.74,0,0,0-2.32,9.13Z"/><path d="M701.71,104.36l5.25-.91V78.53l-5.25-.9v-4.1h10.93l.45,5.2a12.68,12.68,0,0,1,4.37-4.31,11.65,11.65,0,0,1,6-1.53q5.64,0,8.74,3.3t3.09,10.21v17l5.26.91v4.06H723.67v-4.06l5.25-.91V86.53c0-3.07-.61-5.26-1.82-6.55s-3.07-1.93-5.56-1.93a8.93,8.93,0,0,0-4.85,1.32A9.61,9.61,0,0,0,713.32,83v20.47l5.25.91v4.06H701.71Z"/><path d="M773.8,84.5H769l-1-4.19a8.69,8.69,0,0,0-2.92-1.76,11.26,11.26,0,0,0-4-.66,7.3,7.3,0,0,0-5,1.48A4.64,4.64,0,0,0,754.42,83a4,4,0,0,0,1.45,3.26q1.46,1.19,5.9,2.12,6.62,1.42,9.84,3.86a7.76,7.76,0,0,1,3.22,6.53,9,9,0,0,1-3.75,7.51,15.78,15.78,0,0,1-9.82,2.87,25.63,25.63,0,0,1-7.13-.92,19,19,0,0,1-5.64-2.66l0-8h4.77l1.19,4.68a6.6,6.6,0,0,0,3,1.45,16.48,16.48,0,0,0,3.85.45,8.93,8.93,0,0,0,5.3-1.37,4.21,4.21,0,0,0,1.92-3.59,4.32,4.32,0,0,0-1.59-3.45c-1.07-.91-3.08-1.69-6-2.36q-6.35-1.38-9.58-3.77A7.6,7.6,0,0,1,748,83.14a9.11,9.11,0,0,1,3.63-7.25,14.31,14.31,0,0,1,9.43-3,22.79,22.79,0,0,1,7.12,1,15,15,0,0,1,5.26,2.87Z"/></g></g></svg>