<?xml version="1.0" encoding="UTF-8" standalone="no"?>
<!DOCTYPE svg PUBLIC "-//W3C//DTD SVG 1.1//EN" "http://www.w3.org/Graphics/SVG/1.1/DTD/svg11.dtd">
<svg width="100%" height="100%" viewBox="0 0 92 18" version="1.1" xmlns="http://www.w3.org/2000/svg" xmlns:xlink="http://www.w3.org/1999/xlink" xml:space="preserve" xmlns:serif="http://www.serif.com/" style="fill-rule:evenodd;clip-rule:evenodd;stroke-linejoin:round;stroke-miterlimit:1.41421;">
    <g transform="matrix(1,0,0,1,-206,-640)">
        <path d="M296.7,656.496C296.7,655.543 296.15,655.212 295.234,655.212L288.343,655.212C285.108,655.212 283.968,653.209 283.819,651.829L293.386,651.829C296.177,651.829 297,649.819 297,648.525C297,647.144 296.105,645.222 293.386,645.222L288.218,645.222C283.514,645.222 281.966,648.425 281.966,651.023C281.966,653.877 283.728,656.824 288.206,656.824L296.7,656.824L296.7,656.496ZM288.355,646.834L293.15,646.834C294.804,646.834 295.202,647.864 295.202,648.525C295.202,649.117 294.84,650.216 293.15,650.216L283.819,650.216C283.932,649.066 284.897,646.834 288.355,646.834ZM268.848,656.091C268.354,656.765 268.015,657 267.583,657C266.983,657 266.753,656.676 266.326,656.092C265.286,654.676 258.367,645.222 258.367,645.222L259.438,645.222C260.592,645.222 260.923,645.63 261.403,646.298C261.612,646.592 267.629,655.073 267.629,655.073C267.629,655.073 273.638,646.603 273.886,646.254C274.327,645.627 274.67,645.222 275.83,645.222L276.77,645.222C276.77,645.222 269.69,654.937 268.848,656.091ZM223.476,656.824C222.751,656.824 222.296,656.466 222.154,655.692L221.916,654.432C221.526,655.158 220.071,656.824 216.926,656.824L213.31,656.824C208.388,656.824 207,653.489 207,651.023C207,648.246 208.668,645.222 213.31,645.222L216.926,645.222C220.446,645.222 222.407,647.273 222.877,649.772C223.271,651.859 224.195,656.824 224.195,656.824L223.476,656.824ZM216.528,646.834L213.437,646.834C209.965,646.834 208.783,649.043 208.783,651.023C208.783,653.024 209.965,655.212 213.437,655.212L216.528,655.212C220.154,655.212 221.211,652.91 221.211,651.023C221.211,649.34 220.267,646.834 216.528,646.834ZM279.091,643.892C279.605,643.892 280.003,643.574 280.003,642.969L280.003,642.587C280.003,641.976 279.6,641.664 279.091,641.664C278.585,641.664 278.177,641.971 278.177,642.587L278.177,642.969C278.177,643.578 278.575,643.892 279.091,643.892ZM278.198,645.221L278.623,645.221C279.451,645.221 279.982,645.593 279.982,646.718L279.982,656.824L279.538,656.824C278.63,656.824 278.198,656.333 278.198,655.357L278.198,645.221ZM226.916,646.729C227.684,646.002 229.044,645.222 231.201,645.222L234.816,645.222C239.737,645.222 241.128,648.557 241.128,651.023C241.128,653.799 239.459,656.824 234.816,656.824L231.201,656.824C227.678,656.824 225.133,654.548 225.133,651.024L225.133,641.329L225.685,641.329C226.473,641.329 226.916,641.733 226.916,642.474L226.916,646.729ZM231.6,655.212L234.689,655.212C238.162,655.212 239.344,653.002 239.344,651.023C239.344,649.022 238.162,646.834 234.689,646.834L231.6,646.834C227.972,646.834 226.916,649.134 226.916,651.023C226.916,652.706 227.858,655.212 231.6,655.212ZM244.716,646.729C245.486,646.002 246.842,645.222 249,645.222L252.617,645.222C257.537,645.222 258.929,648.557 258.929,651.023C258.929,653.799 257.258,656.824 252.617,656.824L249,656.824C245.479,656.824 242.933,654.548 242.933,651.024L242.933,641.329L243.485,641.329C244.272,641.329 244.716,641.733 244.716,642.474L244.716,646.729ZM249.398,655.212L252.49,655.212C255.96,655.212 257.143,653.002 257.143,651.023C257.143,649.022 255.962,646.834 252.49,646.834L249.398,646.834C245.772,646.834 244.716,649.134 244.716,651.023C244.716,652.706 245.659,655.212 249.398,655.212Z" style="fill:rgb(0,0,58);fill-rule:nonzero;"/>
    </g>
</svg>
