<?xml version="1.0" encoding="UTF-8" standalone="no"?>
<!DOCTYPE svg PUBLIC "-//W3C//DTD SVG 1.1//EN" "http://www.w3.org/Graphics/SVG/1.1/DTD/svg11.dtd">
<svg width="100%" height="100%" viewBox="0 0 122 29" version="1.1" xmlns="http://www.w3.org/2000/svg" xmlns:xlink="http://www.w3.org/1999/xlink" xml:space="preserve" xmlns:serif="http://www.serif.com/" style="fill-rule:evenodd;clip-rule:evenodd;stroke-linejoin:round;stroke-miterlimit:1.41421;">
    <g transform="matrix(0.545064,0,0,0.546875,-30.4335,-18.9531)">
        <path d="M223.579,36.96L222.569,43.164L224.744,43.164L222.026,59.774L219.818,59.774L218.75,66.322L242.006,66.322L243.679,56.066L236.192,56.066L235.615,59.774L229.814,59.774L230.676,54.535L237.067,54.535L238.212,47.472L231.81,47.472L232.496,43.164L237.964,43.164L237.486,46.152L244.762,46.152L246.252,36.96" style="fill-rule:nonzero;"/>
        <path d="M181.35,36.96L180.354,43.164L182.522,43.164L181.157,51.547L173.54,36.96L163.698,36.96L162.707,43.164L164.889,43.164L162.174,59.774L160.003,59.774L158.952,66.322L171.262,66.322L172.314,59.774L170.133,59.774L171.719,49.877L180.045,66.322L186.619,66.322L190.383,43.164L192.568,43.164L193.573,36.96" style="fill-rule:nonzero;"/>
        <path d="M124.632,36.96L123.633,43.164L125.818,43.164L117.32,59.774L115.164,59.774L114.086,66.322L126.384,66.322L127.464,59.774L125.26,59.774L126.354,57.35L133.969,57.35L134.276,59.774L132.1,59.774L131.041,66.322L143.684,66.317L144.751,59.774L142.559,59.774L138.679,36.96L124.632,36.96ZM132.63,44.258L133.242,51.168L129.644,51.168" style="fill-rule:nonzero;"/>
        <path d="M106.068,49.085C104.651,50.383 102.446,49.877 100.522,49.963L101.569,43.534C103.753,43.584 106.754,42.922 107.563,45.408C107.753,46.824 107.254,48.163 106.068,49.085ZM108.019,54.518C109.476,54.175 110.737,53.294 111.924,52.26C114.606,49.812 116.096,46.25 115.021,42.576C113.991,39.132 110.356,37.195 106.984,36.965L92.387,36.965L91.396,43.166L93.567,43.166L90.869,59.777L88.671,59.777L87.613,66.324L99.522,66.324L100.598,59.777L98.939,59.777L99.568,55.86L105.418,66.324L112.746,66.324L113.821,59.777L111.083,59.777" style="fill-rule:nonzero;"/>
        <path d="M157.65,66.31L158.703,59.767L156.522,59.767L159.239,43.157L161.411,43.157L162.402,36.953L149.77,36.953L148.762,43.157L150.933,43.157L148.246,59.767L146.055,59.767L144.999,66.322" style="fill-rule:nonzero;"/>
        <path d="M261.773,49.078C260.357,50.378 258.154,49.872 256.226,49.958L257.275,43.526C259.459,43.579 262.462,42.917 263.27,45.403C263.458,46.819 262.958,48.158 261.773,49.078ZM263.724,54.514C265.183,54.168 266.443,53.29 267.629,52.255C270.312,49.805 271.802,46.243 270.727,42.571C269.695,39.125 266.062,37.19 262.69,36.958L248.09,36.958L247.102,43.162L249.274,43.162L246.574,59.772L244.375,59.772L243.319,66.319L255.228,66.319L256.303,59.772L254.645,59.772L255.274,55.853L261.125,66.319L268.452,66.319L269.527,59.772L266.786,59.772" style="fill-rule:nonzero;"/>
        <path d="M101.84,72.869L99.718,85.956L265.253,85.956L267.386,72.869L101.84,72.869Z" style="fill:rgb(237,27,45);fill-rule:nonzero;"/>
        <path d="M71.513,72.869L68.571,72.869L66.449,85.956L69.391,85.956L71.513,72.869Z" style="fill:rgb(237,27,45);fill-rule:nonzero;"/>
        <path d="M81.042,72.869L76.9,72.869L74.78,85.956L78.922,85.956L81.042,72.869Z" style="fill:rgb(237,27,45);fill-rule:nonzero;"/>
        <path d="M61.982,72.869L60.24,72.869L58.119,85.956L59.861,85.956L61.982,72.869Z" style="fill:rgb(237,27,45);fill-rule:nonzero;"/>
        <path d="M100.105,72.869L93.564,72.869L91.443,85.956L97.985,85.956L100.105,72.869Z" style="fill:rgb(237,27,45);fill-rule:nonzero;"/>
        <path d="M90.573,72.869L85.231,72.869L83.111,85.956L88.452,85.956L90.573,72.869Z" style="fill:rgb(237,27,45);fill-rule:nonzero;"/>
        <path d="M277.188,63.127C277.178,64.774 275.89,66.082 274.214,66.082C272.587,66.082 271.253,64.783 271.253,63.12C271.253,61.49 272.551,60.156 274.234,60.156C275.926,60.156 277.195,61.5 277.188,63.127ZM277.481,63.137C277.488,61.354 276.098,59.863 274.214,59.863C272.46,59.863 270.96,61.243 270.96,63.12C270.96,65.05 272.515,66.374 274.207,66.374C276.053,66.374 277.471,64.939 277.481,63.137ZM272.906,61.07L272.906,65.138L273.502,65.138L273.502,63.247L273.794,63.247C274.38,63.257 274.709,63.329 274.826,63.934C274.846,64.034 274.91,64.49 274.93,64.582C274.966,64.774 275.002,64.956 275.093,65.138L275.779,65.138C275.594,64.774 275.57,64.555 275.477,63.96C275.395,63.468 275.258,63.228 274.819,63.065C275.321,62.983 275.734,62.652 275.734,62.086C275.734,61.702 275.522,61.325 275.112,61.162C274.865,61.07 274.634,61.07 274.162,61.07L272.906,61.07ZM273.511,61.529L274.07,61.529C274.562,61.529 274.764,61.529 274.937,61.682C275.057,61.783 275.131,61.949 275.131,62.131C275.131,62.782 274.452,62.772 274.198,62.772L273.511,62.772" style="fill-rule:nonzero;"/>
        <path d="M83.619,36.924L89.687,36.924L88.077,46.891L81.177,46.891C80.794,45.283 79.145,43.769 77.535,43.423C74.581,42.773 71.556,43.805 69.678,46.178C67.61,49.056 66.689,53.894 68.642,57.036C69.986,59.143 72.571,59.923 74.987,59.542C76.866,59.198 78.761,57.533 79.566,55.769L71.876,55.764L72.838,49.8L89.038,49.8L86.351,66.329L80.108,66.329L80.491,64.459C79.755,65.438 77.778,67.102 72.901,67.102C66.744,67.102 60.014,61.894 60.014,52.706C60.014,45.142 65.736,35.964 75.891,36C78.479,36.01 81.381,36.66 83.254,38.45" style="fill-rule:nonzero;"/>
        <path d="M214.736,36.924L220.804,36.924L219.193,46.891L212.293,46.891C211.911,45.283 210.263,43.769 208.652,43.423C205.698,42.773 202.674,43.805 200.796,46.178C198.727,49.056 197.806,53.894 199.759,57.036C201.102,59.143 203.687,59.923 206.103,59.542C207.984,59.198 209.877,57.533 210.683,55.769L202.993,55.764L203.955,49.8L220.155,49.8L217.467,66.329L211.225,66.329L211.607,64.459C210.872,65.438 208.896,67.102 204.018,67.102C197.86,67.102 191.131,61.894 191.131,52.706C191.131,45.142 196.854,35.964 207.008,36C209.596,36.01 212.498,36.66 214.371,38.45" style="fill-rule:nonzero;"/>
    </g>
</svg>
