<svg id="svg" version="1.1" xmlns="http://www.w3.org/2000/svg" xmlns:xlink="http://www.w3.org/1999/xlink" width="400" height="130" viewBox="0, 0, 400,130"><g id="svgg"><path id="path0" d="M39.166 0.125 C 39.166 0.194,38.941 0.512,38.667 0.833 C 38.392 1.154,38.167 1.494,38.167 1.588 C 38.167 1.683,38.017 1.868,37.833 2.000 C 37.650 2.132,37.500 2.357,37.500 2.500 C 37.500 2.643,37.350 2.868,37.167 3.000 C 36.983 3.132,36.833 3.357,36.833 3.500 C 36.833 3.643,36.683 3.868,36.500 4.000 C 36.317 4.132,36.167 4.357,36.167 4.500 C 36.167 4.643,36.017 4.868,35.833 5.000 C 35.650 5.132,35.500 5.357,35.500 5.500 C 35.500 5.643,35.350 5.868,35.167 6.000 C 34.983 6.132,34.833 6.374,34.833 6.537 C 34.833 6.700,34.771 6.833,34.695 6.833 C 34.619 6.833,34.450 7.040,34.320 7.292 C 34.190 7.544,33.952 7.895,33.792 8.073 C 33.631 8.251,33.500 8.495,33.500 8.615 C 33.500 8.735,33.425 8.833,33.333 8.833 C 33.242 8.833,33.167 8.949,33.167 9.090 C 33.167 9.232,33.017 9.508,32.833 9.705 C 32.650 9.902,32.500 10.161,32.500 10.281 C 32.500 10.402,32.425 10.500,32.333 10.500 C 32.242 10.500,32.167 10.598,32.167 10.719 C 32.167 10.839,32.017 11.098,31.833 11.295 C 31.210 11.964,31.386 12.260,32.708 12.765 C 35.089 13.675,37.933 14.813,38.833 15.218 C 41.251 16.302,42.263 16.782,44.500 17.900 C 46.834 19.067,47.577 19.462,50.083 20.865 C 50.725 21.224,51.358 21.575,51.489 21.646 C 51.665 21.739,51.845 21.547,52.165 20.928 C 52.406 20.463,52.917 19.569,53.301 18.941 C 53.685 18.313,54.000 17.775,54.000 17.745 C 54.000 17.715,54.385 17.067,54.856 16.304 C 55.326 15.541,55.842 14.692,56.002 14.417 C 56.507 13.546,57.702 11.599,57.996 11.167 C 58.152 10.938,58.329 10.600,58.390 10.417 L 58.501 10.083 58.238 10.417 C 58.094 10.600,57.729 11.162,57.428 11.667 C 57.127 12.171,56.485 13.221,56.002 14.000 C 55.518 14.779,54.964 15.690,54.770 16.023 C 52.628 19.705,51.736 21.167,51.630 21.167 C 51.561 21.167,51.231 20.623,50.897 19.958 C 50.278 18.726,47.254 13.153,45.086 9.250 C 44.424 8.058,43.635 6.633,43.334 6.083 C 43.032 5.533,42.208 4.071,41.503 2.833 C 40.798 1.596,40.174 0.452,40.116 0.292 C 40.014 0.009,39.167 -0.140,39.166 0.125 M25.029 22.516 C 24.712 23.022,24.903 23.090,25.231 22.589 C 25.383 22.357,25.449 22.167,25.377 22.167 C 25.306 22.167,25.149 22.324,25.029 22.516 M22.167 28.051 C 22.029 28.160,21.810 28.456,21.680 28.708 C 21.550 28.960,21.381 29.167,21.305 29.167 C 21.229 29.167,21.167 29.264,21.167 29.383 C 21.167 29.690,20.775 30.497,20.625 30.499 C 20.556 30.499,20.500 30.650,20.500 30.833 C 20.500 31.017,20.425 31.167,20.333 31.167 C 20.242 31.167,20.167 31.282,20.167 31.424 C 20.167 31.565,20.017 31.842,19.833 32.038 C 19.650 32.235,19.500 32.495,19.500 32.615 C 19.500 32.735,19.425 32.833,19.333 32.833 C 19.242 32.833,19.167 32.939,19.167 33.068 C 19.167 33.345,18.472 34.726,18.292 34.806 C 18.223 34.836,18.167 35.005,18.167 35.181 C 18.167 35.356,18.092 35.500,18.000 35.500 C 17.908 35.500,17.833 35.650,17.833 35.833 C 17.833 36.017,17.758 36.167,17.667 36.167 C 17.575 36.167,17.500 36.317,17.500 36.500 C 17.500 36.683,17.444 36.834,17.375 36.835 C 17.229 36.836,16.833 37.640,16.833 37.936 C 16.833 38.048,16.777 38.164,16.708 38.194 C 16.640 38.225,16.403 38.606,16.182 39.042 C 15.961 39.477,15.718 39.833,15.640 39.833 C 15.563 39.833,15.500 39.931,15.500 40.050 C 15.500 40.357,15.108 41.164,14.958 41.165 C 14.890 41.166,14.833 41.264,14.833 41.383 C 14.833 41.690,14.441 42.497,14.292 42.499 C 14.223 42.499,14.167 42.650,14.167 42.833 C 14.167 43.017,14.092 43.167,14.000 43.167 C 13.908 43.167,13.833 43.317,13.833 43.500 C 13.833 43.683,13.758 43.833,13.667 43.833 C 13.575 43.833,13.500 43.983,13.500 44.167 C 13.500 44.350,13.425 44.500,13.333 44.500 C 13.242 44.500,13.167 44.650,13.167 44.833 C 13.167 45.017,13.092 45.167,13.000 45.167 C 12.908 45.167,12.833 45.317,12.833 45.500 C 12.833 45.683,12.758 45.833,12.667 45.833 C 12.575 45.833,12.500 45.983,12.500 46.167 C 12.500 46.350,12.425 46.500,12.333 46.500 C 12.242 46.500,12.167 46.650,12.167 46.833 C 12.167 47.017,12.092 47.167,12.000 47.167 C 11.908 47.167,11.833 47.315,11.833 47.497 C 11.833 47.851,11.851 47.857,13.750 48.177 C 16.990 48.724,19.451 49.281,23.250 50.327 C 24.103 50.563,25.567 51.029,25.917 51.178 C 26.100 51.256,26.813 51.505,27.500 51.732 C 30.910 52.860,34.333 54.240,34.333 54.487 C 34.333 54.551,33.827 54.771,33.208 54.977 C 32.590 55.182,31.933 55.418,31.750 55.500 C 31.567 55.583,31.079 55.759,30.667 55.893 C 29.421 56.295,28.245 56.747,26.960 57.317 C 26.526 57.509,26.106 57.667,26.027 57.667 C 25.949 57.667,25.667 57.771,25.401 57.898 C 25.134 58.026,24.617 58.260,24.250 58.418 C 17.784 61.212,8.676 66.323,4.500 69.501 C 1.718 71.618,0.603 72.441,0.325 72.581 C -0.490 72.993,-0.019 73.167,1.917 73.167 C 3.083 73.167,3.833 73.232,3.833 73.333 C 3.833 73.430,4.386 73.500,5.157 73.500 C 5.885 73.500,6.527 73.575,6.583 73.667 C 6.640 73.758,7.165 73.833,7.750 73.833 C 8.335 73.833,8.860 73.908,8.917 74.000 C 8.973 74.092,9.353 74.167,9.760 74.167 C 10.167 74.167,10.500 74.242,10.500 74.333 C 10.500 74.425,10.833 74.500,11.240 74.500 C 11.647 74.500,12.027 74.575,12.083 74.667 C 12.140 74.758,12.482 74.833,12.843 74.833 C 13.204 74.833,13.500 74.908,13.500 75.000 C 13.500 75.092,13.721 75.167,13.990 75.167 C 14.260 75.167,14.527 75.242,14.583 75.333 C 14.640 75.425,14.944 75.500,15.260 75.500 C 15.575 75.500,15.833 75.575,15.833 75.667 C 15.833 75.758,16.133 75.833,16.500 75.833 C 16.867 75.833,17.167 75.908,17.167 76.000 C 17.167 76.092,17.392 76.167,17.667 76.167 C 17.942 76.167,18.167 76.242,18.167 76.333 C 18.167 76.425,18.392 76.500,18.667 76.500 C 18.942 76.500,19.167 76.575,19.167 76.667 C 19.167 76.758,19.387 76.833,19.657 76.833 C 19.926 76.833,20.193 76.908,20.250 77.000 C 20.307 77.092,20.536 77.167,20.760 77.167 C 20.984 77.167,21.167 77.242,21.167 77.333 C 21.167 77.425,21.392 77.500,21.667 77.500 C 21.942 77.500,22.167 77.575,22.167 77.667 C 22.167 77.758,22.350 77.833,22.573 77.833 C 22.797 77.833,23.027 77.908,23.083 78.000 C 23.140 78.092,23.365 78.167,23.583 78.167 C 23.802 78.167,24.027 78.242,24.083 78.333 C 24.140 78.425,24.332 78.500,24.510 78.500 C 24.688 78.500,24.833 78.575,24.833 78.667 C 24.833 78.758,24.979 78.833,25.157 78.833 C 25.335 78.833,25.527 78.908,25.583 79.000 C 25.640 79.092,25.869 79.167,26.093 79.167 C 26.317 79.167,26.500 79.242,26.500 79.333 C 26.500 79.425,26.646 79.500,26.823 79.500 C 27.001 79.500,27.193 79.575,27.250 79.667 C 27.307 79.758,27.536 79.833,27.760 79.833 C 27.984 79.833,28.167 79.908,28.167 80.000 C 28.167 80.092,28.350 80.167,28.573 80.167 C 28.797 80.167,29.027 80.242,29.083 80.333 C 29.140 80.425,29.332 80.500,29.510 80.500 C 29.688 80.500,29.833 80.575,29.833 80.667 C 29.833 80.758,29.939 80.833,30.068 80.833 C 30.345 80.833,31.726 81.528,31.806 81.708 C 31.836 81.777,32.038 81.833,32.254 81.833 C 32.470 81.833,32.693 81.908,32.750 82.000 C 32.807 82.092,32.999 82.167,33.177 82.167 C 33.354 82.167,33.500 82.242,33.500 82.333 C 33.500 82.425,33.650 82.500,33.833 82.500 C 34.017 82.500,34.167 82.575,34.167 82.667 C 34.167 82.758,34.317 82.833,34.500 82.833 C 34.683 82.833,34.833 82.908,34.833 83.000 C 34.833 83.092,34.983 83.167,35.167 83.167 C 35.350 83.167,35.500 83.242,35.500 83.333 C 35.500 83.425,35.598 83.500,35.717 83.500 C 36.023 83.500,36.830 83.892,36.832 84.042 C 36.833 84.110,36.983 84.167,37.167 84.167 C 37.350 84.167,37.500 84.242,37.500 84.333 C 37.500 84.425,37.650 84.500,37.833 84.500 C 38.017 84.500,38.167 84.575,38.167 84.667 C 38.167 84.758,38.317 84.833,38.500 84.833 C 38.683 84.833,38.833 84.908,38.833 85.000 C 38.833 85.092,38.983 85.167,39.167 85.167 C 39.350 85.167,39.500 85.242,39.500 85.333 C 39.500 85.425,39.650 85.500,39.833 85.500 C 40.017 85.500,40.167 85.575,40.167 85.667 C 40.167 85.758,40.317 85.833,40.500 85.833 C 40.683 85.833,40.833 85.908,40.833 86.000 C 40.833 86.092,40.983 86.167,41.167 86.167 C 41.350 86.167,41.500 86.242,41.500 86.333 C 41.500 86.425,41.650 86.500,41.833 86.500 C 42.017 86.500,42.167 86.575,42.167 86.667 C 42.167 86.758,42.317 86.833,42.500 86.833 C 42.683 86.833,42.833 86.908,42.833 87.000 C 42.833 87.092,42.983 87.167,43.167 87.167 C 43.350 87.167,43.500 87.242,43.500 87.333 C 43.500 87.425,43.644 87.500,43.819 87.500 C 43.995 87.500,44.164 87.556,44.194 87.625 C 44.225 87.694,44.569 87.919,44.958 88.125 C 45.348 88.331,45.985 88.669,46.375 88.875 C 46.765 89.081,47.108 89.306,47.139 89.375 C 47.169 89.444,47.338 89.500,47.514 89.500 C 47.690 89.500,47.833 89.563,47.833 89.640 C 47.833 89.718,48.190 89.961,48.625 90.182 C 49.060 90.403,49.442 90.640,49.472 90.708 C 49.503 90.777,49.637 90.833,49.771 90.833 C 49.905 90.833,50.175 90.983,50.372 91.167 C 50.569 91.350,50.828 91.500,50.948 91.500 C 51.068 91.500,51.167 91.575,51.167 91.667 C 51.167 91.758,51.317 91.833,51.500 91.833 C 51.683 91.833,51.833 91.908,51.833 92.000 C 51.833 92.092,51.932 92.167,52.052 92.167 C 52.172 92.167,52.431 92.317,52.628 92.500 C 52.825 92.683,53.102 92.833,53.243 92.833 C 53.384 92.833,53.500 92.908,53.500 93.000 C 53.500 93.092,53.644 93.167,53.819 93.167 C 53.995 93.167,54.164 93.223,54.194 93.292 C 54.264 93.448,55.152 93.989,55.542 94.113 C 55.702 94.164,55.833 94.272,55.833 94.353 C 55.833 94.434,55.983 94.500,56.167 94.500 C 56.350 94.500,56.500 94.562,56.500 94.639 C 56.500 94.715,56.706 94.883,56.958 95.014 C 57.210 95.144,57.562 95.381,57.740 95.542 C 57.917 95.702,58.161 95.833,58.281 95.833 C 58.402 95.833,58.500 95.908,58.500 96.000 C 58.500 96.092,58.633 96.167,58.797 96.167 C 58.960 96.167,59.201 96.317,59.333 96.500 C 59.465 96.683,59.677 96.833,59.803 96.833 C 60.047 96.833,61.046 97.483,61.139 97.702 C 61.169 97.774,61.304 97.833,61.438 97.833 C 61.571 97.833,61.842 97.983,62.038 98.167 C 62.235 98.350,62.495 98.500,62.615 98.500 C 62.735 98.500,62.833 98.575,62.833 98.667 C 62.833 98.758,62.983 98.833,63.167 98.833 C 63.350 98.833,63.500 98.896,63.500 98.972 C 63.500 99.048,63.706 99.217,63.958 99.347 C 64.210 99.477,64.562 99.715,64.740 99.875 C 64.917 100.035,65.161 100.167,65.281 100.167 C 65.402 100.167,65.500 100.233,65.500 100.314 C 65.500 100.395,65.631 100.503,65.792 100.554 C 66.226 100.691,67.046 101.210,67.352 101.542 C 67.501 101.702,67.711 101.833,67.818 101.833 C 67.926 101.833,68.175 101.983,68.372 102.167 C 68.569 102.350,68.828 102.500,68.948 102.500 C 69.068 102.500,69.167 102.575,69.167 102.667 C 69.167 102.758,69.265 102.833,69.385 102.833 C 69.505 102.833,69.765 102.983,69.962 103.167 C 70.158 103.350,70.418 103.500,70.540 103.500 C 70.661 103.500,70.868 103.650,71.000 103.833 C 71.132 104.017,71.374 104.167,71.537 104.167 C 71.700 104.167,71.833 104.229,71.833 104.305 C 71.833 104.381,72.040 104.550,72.292 104.680 C 72.544 104.810,72.895 105.048,73.073 105.208 C 73.251 105.369,73.495 105.500,73.615 105.500 C 73.735 105.500,73.833 105.575,73.833 105.667 C 73.833 105.758,73.967 105.833,74.130 105.833 C 74.293 105.833,74.535 105.983,74.667 106.167 C 74.799 106.350,75.024 106.500,75.167 106.500 C 75.310 106.500,75.535 106.650,75.667 106.833 C 75.799 107.017,76.040 107.167,76.203 107.167 C 76.367 107.167,76.500 107.229,76.500 107.305 C 76.500 107.381,76.706 107.550,76.958 107.680 C 77.210 107.810,77.562 108.048,77.740 108.208 C 77.917 108.369,78.161 108.500,78.281 108.500 C 78.402 108.500,78.500 108.566,78.500 108.647 C 78.500 108.728,78.631 108.836,78.792 108.887 C 79.170 109.007,79.980 109.505,80.399 109.875 C 80.581 110.035,80.811 110.167,80.911 110.167 C 81.011 110.167,81.201 110.317,81.333 110.500 C 81.465 110.683,81.673 110.833,81.794 110.833 C 81.915 110.833,82.175 110.983,82.372 111.167 C 82.569 111.350,82.828 111.500,82.948 111.500 C 83.068 111.500,83.167 111.575,83.167 111.667 C 83.167 111.758,83.265 111.833,83.385 111.833 C 83.505 111.833,83.765 111.983,83.962 112.167 C 84.158 112.350,84.418 112.500,84.540 112.500 C 84.661 112.500,84.868 112.650,85.000 112.833 C 85.132 113.017,85.339 113.167,85.460 113.167 C 85.582 113.167,85.842 113.317,86.038 113.500 C 86.235 113.683,86.495 113.833,86.615 113.833 C 86.735 113.833,86.833 113.908,86.833 114.000 C 86.833 114.092,86.932 114.167,87.052 114.167 C 87.172 114.167,87.431 114.317,87.628 114.500 C 87.825 114.683,88.102 114.833,88.243 114.833 C 88.384 114.833,88.500 114.908,88.500 115.000 C 88.500 115.092,88.598 115.167,88.719 115.167 C 88.839 115.167,89.098 115.317,89.295 115.500 C 89.492 115.683,89.734 115.833,89.833 115.833 C 89.933 115.833,90.175 115.983,90.372 116.167 C 90.569 116.350,90.828 116.500,90.948 116.500 C 91.068 116.500,91.167 116.575,91.167 116.667 C 91.167 116.758,91.265 116.833,91.385 116.833 C 91.505 116.833,91.765 116.983,91.962 117.167 C 92.158 117.350,92.401 117.500,92.500 117.500 C 92.599 117.500,92.842 117.650,93.038 117.833 C 93.235 118.017,93.495 118.167,93.615 118.167 C 93.735 118.167,93.833 118.242,93.833 118.333 C 93.833 118.425,93.967 118.500,94.130 118.500 C 94.293 118.500,94.535 118.650,94.667 118.833 C 94.799 119.017,95.040 119.167,95.203 119.167 C 95.367 119.167,95.500 119.242,95.500 119.333 C 95.500 119.425,95.650 119.500,95.833 119.500 C 96.017 119.500,96.167 119.575,96.167 119.667 C 96.167 119.758,96.265 119.833,96.385 119.833 C 96.505 119.833,96.765 119.983,96.962 120.167 C 97.158 120.350,97.435 120.500,97.576 120.500 C 97.718 120.500,97.833 120.563,97.833 120.640 C 97.833 120.718,98.190 120.961,98.625 121.182 C 99.060 121.403,99.442 121.640,99.472 121.708 C 99.503 121.777,99.672 121.833,99.847 121.833 C 100.023 121.833,100.167 121.908,100.167 122.000 C 100.167 122.092,100.260 122.168,100.375 122.170 C 100.490 122.172,100.771 122.321,101.000 122.500 C 101.876 123.186,102.167 122.978,102.167 121.667 C 102.167 121.000,102.238 120.500,102.333 120.500 C 102.428 120.500,102.500 120.003,102.500 119.343 C 102.500 118.707,102.575 118.140,102.667 118.083 C 102.758 118.027,102.833 117.427,102.833 116.750 C 102.833 116.073,102.908 115.473,103.000 115.417 C 103.092 115.360,103.167 114.798,103.167 114.167 C 103.167 113.536,103.242 112.973,103.333 112.917 C 103.425 112.860,103.500 112.298,103.500 111.667 C 103.500 111.036,103.575 110.473,103.667 110.417 C 103.758 110.360,103.833 109.756,103.833 109.073 C 103.833 108.391,103.903 107.833,103.987 107.833 C 104.072 107.833,104.183 107.252,104.233 106.542 C 104.420 103.929,104.534 102.913,104.658 102.750 C 104.729 102.658,104.802 102.058,104.821 101.417 C 104.841 100.775,104.927 100.225,105.012 100.194 C 105.097 100.164,105.167 99.587,105.167 98.913 C 105.167 98.238,105.242 97.640,105.333 97.583 C 105.425 97.527,105.500 96.960,105.500 96.323 C 105.500 95.663,105.572 95.167,105.667 95.167 C 105.762 95.167,105.833 94.670,105.833 94.010 C 105.833 93.374,105.908 92.807,106.000 92.750 C 106.092 92.693,106.167 92.089,106.167 91.407 C 106.167 90.691,106.237 90.167,106.333 90.167 C 106.428 90.167,106.500 89.670,106.500 89.010 C 106.500 88.374,106.575 87.807,106.667 87.750 C 106.758 87.693,106.833 87.131,106.833 86.500 C 106.833 85.869,106.908 85.307,107.000 85.250 C 107.092 85.193,107.167 84.626,107.167 83.990 C 107.167 83.330,107.238 82.833,107.333 82.833 C 107.428 82.833,107.500 82.337,107.500 81.677 C 107.500 81.040,107.575 80.473,107.667 80.417 C 107.758 80.360,107.833 79.756,107.833 79.073 C 107.833 78.358,107.904 77.833,108.000 77.833 C 108.096 77.833,108.167 77.309,108.167 76.593 C 108.167 75.911,108.242 75.307,108.333 75.250 C 108.425 75.193,108.500 74.626,108.500 73.990 C 108.500 73.330,108.572 72.833,108.667 72.833 C 108.762 72.833,108.833 72.337,108.833 71.677 C 108.833 71.040,108.908 70.473,109.000 70.417 C 109.380 70.182,109.195 68.261,108.767 67.997 C 108.547 67.861,106.391 65.835,103.976 63.495 C 101.560 61.155,99.023 58.718,98.339 58.079 C 97.654 57.440,96.904 56.729,96.672 56.500 C 96.439 56.271,95.388 55.296,94.335 54.333 C 93.282 53.371,92.095 52.283,91.698 51.917 C 90.639 50.941,90.184 51.053,90.172 52.292 C 90.169 52.590,90.092 52.833,90.000 52.833 C 89.908 52.833,89.833 53.058,89.833 53.333 C 89.833 53.608,89.758 53.833,89.667 53.833 C 89.575 53.833,89.500 54.091,89.500 54.407 C 89.500 54.722,89.425 55.027,89.333 55.083 C 89.242 55.140,89.167 55.407,89.167 55.677 C 89.167 55.946,89.092 56.167,89.000 56.167 C 88.908 56.167,88.833 56.387,88.833 56.657 C 88.833 56.926,88.758 57.193,88.667 57.250 C 88.575 57.307,88.500 57.611,88.500 57.927 C 88.500 58.242,88.425 58.500,88.333 58.500 C 88.242 58.500,88.167 58.721,88.167 58.990 C 88.167 59.260,88.092 59.527,88.000 59.583 C 87.908 59.640,87.833 59.944,87.833 60.260 C 87.833 60.575,87.758 60.833,87.667 60.833 C 87.575 60.833,87.500 61.091,87.500 61.407 C 87.500 61.722,87.425 62.027,87.333 62.083 C 87.242 62.140,87.167 62.407,87.167 62.677 C 87.167 62.946,87.092 63.167,87.000 63.167 C 86.908 63.167,86.833 63.467,86.833 63.833 C 86.833 64.200,86.758 64.500,86.667 64.500 C 86.575 64.500,86.500 64.654,86.500 64.843 C 86.500 65.032,86.569 65.144,86.654 65.091 C 86.739 65.039,87.170 65.332,87.612 65.743 C 88.055 66.154,88.504 66.493,88.611 66.495 C 88.718 66.498,88.831 66.556,88.861 66.625 C 88.908 66.731,89.849 67.534,91.058 68.500 C 91.230 68.637,91.456 68.827,91.560 68.920 C 91.665 69.014,92.350 69.574,93.083 70.164 C 93.817 70.755,94.529 71.353,94.667 71.494 C 94.804 71.635,95.254 72.010,95.667 72.329 C 96.079 72.647,96.696 73.164,97.038 73.477 C 97.380 73.791,97.830 74.163,98.038 74.306 C 98.246 74.448,98.529 74.682,98.667 74.826 C 98.804 74.969,99.195 75.294,99.534 75.546 C 99.874 75.799,100.512 76.340,100.951 76.748 C 101.390 77.157,101.844 77.493,101.958 77.495 C 102.073 77.498,102.167 77.562,102.167 77.638 C 102.167 77.714,102.889 78.370,103.772 79.096 C 104.655 79.823,105.574 80.585,105.814 80.791 L 106.250 81.166 100.250 81.179 C 96.950 81.186,94.100 81.235,93.917 81.287 C 93.733 81.340,92.608 81.444,91.417 81.518 C 90.225 81.593,88.537 81.734,87.667 81.832 C 86.796 81.930,85.521 82.051,84.833 82.103 C 84.146 82.154,83.499 82.265,83.397 82.350 C 83.294 82.435,82.860 82.491,82.433 82.475 C 82.005 82.459,81.567 82.533,81.461 82.639 C 81.354 82.746,80.847 82.833,80.333 82.833 C 79.820 82.833,79.329 82.902,79.242 82.985 C 79.155 83.069,78.671 83.176,78.167 83.223 C 77.662 83.271,76.837 83.395,76.333 83.499 C 75.829 83.603,75.042 83.728,74.583 83.776 C 74.125 83.825,73.679 83.932,73.592 84.015 C 73.505 84.099,73.163 84.167,72.833 84.167 C 72.503 84.167,72.162 84.234,72.075 84.316 C 71.988 84.399,71.598 84.511,71.208 84.566 C 70.819 84.621,70.181 84.712,69.792 84.767 C 69.402 84.822,69.012 84.935,68.925 85.017 C 68.838 85.099,68.482 85.167,68.133 85.167 C 67.785 85.167,67.500 85.242,67.500 85.333 C 67.500 85.425,67.167 85.500,66.760 85.500 C 66.353 85.500,65.973 85.575,65.917 85.667 C 65.860 85.758,65.598 85.833,65.333 85.833 C 65.069 85.833,64.807 85.908,64.750 86.000 C 64.693 86.092,64.393 86.167,64.083 86.167 C 63.773 86.167,63.473 86.242,63.417 86.333 C 63.360 86.425,63.023 86.500,62.667 86.500 C 62.311 86.500,61.973 86.575,61.917 86.667 C 61.860 86.758,61.556 86.833,61.240 86.833 C 60.925 86.833,60.667 86.908,60.667 87.000 C 60.667 87.092,60.446 87.167,60.177 87.167 C 59.907 87.167,59.640 87.242,59.583 87.333 C 59.527 87.425,59.227 87.500,58.917 87.500 C 58.607 87.500,58.307 87.575,58.250 87.667 C 58.193 87.758,57.931 87.833,57.667 87.833 C 57.402 87.833,57.140 87.908,57.083 88.000 C 57.027 88.092,56.764 88.167,56.500 88.167 C 56.236 88.167,55.973 88.242,55.917 88.333 C 55.860 88.425,55.635 88.500,55.417 88.500 C 55.198 88.500,54.973 88.575,54.917 88.667 C 54.860 88.758,54.598 88.833,54.333 88.833 C 54.069 88.833,53.807 88.908,53.750 89.000 C 53.693 89.092,53.468 89.167,53.250 89.167 C 53.032 89.167,52.807 89.242,52.750 89.333 C 52.693 89.425,52.431 89.500,52.167 89.500 C 51.902 89.500,51.645 89.566,51.595 89.647 C 51.492 89.814,50.499 89.995,50.503 89.846 C 50.508 89.651,50.942 88.502,51.052 88.392 C 51.115 88.329,51.167 88.139,51.167 87.970 C 51.167 87.801,51.233 87.532,51.314 87.373 C 51.395 87.214,51.554 86.858,51.667 86.583 C 51.780 86.308,51.938 85.953,52.019 85.794 C 52.100 85.635,52.167 85.358,52.167 85.179 C 52.167 85.000,52.242 84.807,52.333 84.750 C 52.425 84.693,52.500 84.468,52.500 84.250 C 52.500 84.032,52.575 83.807,52.667 83.750 C 52.758 83.693,52.833 83.464,52.833 83.240 C 52.833 83.016,52.908 82.833,53.000 82.833 C 53.092 82.833,53.167 82.650,53.167 82.427 C 53.167 82.203,53.242 81.973,53.333 81.917 C 53.425 81.860,53.500 81.667,53.500 81.488 C 53.500 81.309,53.575 81.013,53.667 80.831 C 53.758 80.649,53.908 80.351,54.000 80.169 C 54.092 79.987,54.167 79.723,54.167 79.583 C 54.167 79.443,54.242 79.180,54.333 78.998 C 54.425 78.816,54.575 78.518,54.667 78.336 C 54.758 78.154,54.833 77.890,54.833 77.750 C 54.833 77.610,54.900 77.365,54.981 77.206 C 55.179 76.817,55.424 76.206,55.667 75.500 C 56.046 74.395,56.718 72.720,57.019 72.127 C 57.100 71.968,57.167 71.691,57.167 71.512 C 57.167 71.333,57.242 71.140,57.333 71.083 C 57.425 71.027,57.500 70.797,57.500 70.573 C 57.500 70.350,57.575 70.167,57.667 70.167 C 57.758 70.167,57.833 70.016,57.833 69.831 C 57.833 69.646,57.900 69.365,57.981 69.206 C 58.062 69.047,58.201 68.729,58.291 68.500 C 58.380 68.271,58.565 67.821,58.702 67.500 C 58.977 66.851,58.929 66.500,58.562 66.500 C 58.429 66.500,58.158 66.350,57.962 66.167 C 57.765 65.983,57.505 65.833,57.385 65.833 C 57.265 65.833,57.167 65.758,57.167 65.667 C 57.167 65.575,57.051 65.500,56.910 65.500 C 56.768 65.500,56.492 65.350,56.295 65.167 C 56.098 64.983,55.839 64.833,55.719 64.833 C 55.598 64.833,55.500 64.758,55.500 64.667 C 55.500 64.575,55.384 64.500,55.243 64.500 C 55.102 64.500,54.825 64.350,54.628 64.167 C 54.431 63.983,54.172 63.833,54.052 63.833 C 53.932 63.833,53.833 63.758,53.833 63.667 C 53.833 63.575,53.683 63.500,53.500 63.500 C 53.317 63.500,53.167 63.425,53.167 63.333 C 53.167 63.242,53.017 63.167,52.833 63.167 C 52.650 63.167,52.500 63.103,52.500 63.026 C 52.500 62.949,52.144 62.705,51.708 62.485 C 51.273 62.264,50.892 62.027,50.861 61.958 C 50.831 61.890,50.668 61.833,50.500 61.833 C 50.332 61.833,50.169 61.777,50.139 61.708 C 50.108 61.640,49.727 61.403,49.292 61.182 C 48.856 60.961,48.500 60.718,48.500 60.640 C 48.500 60.563,48.350 60.500,48.167 60.500 C 47.983 60.500,47.833 60.425,47.833 60.333 C 47.833 60.242,47.683 60.167,47.500 60.167 C 47.317 60.167,47.167 60.092,47.167 60.000 C 47.167 59.908,47.017 59.833,46.833 59.833 C 46.650 59.833,46.500 59.758,46.500 59.667 C 46.500 59.575,46.350 59.500,46.167 59.500 C 45.983 59.500,45.833 59.425,45.833 59.333 C 45.833 59.242,45.683 59.167,45.500 59.167 C 45.317 59.167,45.167 59.092,45.167 59.000 C 45.167 58.908,45.017 58.833,44.833 58.833 C 44.650 58.833,44.500 58.758,44.500 58.667 C 44.500 58.575,44.350 58.500,44.167 58.500 C 43.983 58.500,43.833 58.425,43.833 58.333 C 43.833 58.242,43.683 58.167,43.500 58.167 C 43.317 58.167,43.167 58.092,43.167 58.000 C 43.167 57.908,43.017 57.833,42.833 57.833 C 42.650 57.833,42.500 57.758,42.500 57.667 C 42.500 57.575,42.350 57.500,42.167 57.500 C 41.983 57.500,41.833 57.425,41.833 57.333 C 41.833 57.242,41.683 57.167,41.500 57.167 C 41.317 57.167,41.167 57.092,41.167 57.000 C 41.167 56.908,41.017 56.833,40.833 56.833 C 40.650 56.833,40.500 56.758,40.500 56.667 C 40.500 56.575,40.350 56.500,40.167 56.500 C 39.983 56.500,39.833 56.425,39.833 56.333 C 39.833 56.242,39.683 56.167,39.500 56.167 C 39.317 56.167,39.167 56.092,39.167 56.000 C 39.167 55.908,39.017 55.833,38.833 55.833 C 38.650 55.833,38.500 55.758,38.500 55.667 C 38.500 55.575,38.354 55.500,38.177 55.500 C 37.999 55.500,37.807 55.425,37.750 55.333 C 37.693 55.242,37.464 55.167,37.240 55.167 C 37.016 55.167,36.833 55.092,36.833 55.000 C 36.833 54.908,36.683 54.833,36.500 54.833 C 36.317 54.833,36.167 54.758,36.167 54.667 C 36.167 54.575,35.998 54.495,35.792 54.488 C 34.939 54.460,34.511 53.972,33.688 52.083 C 33.249 51.075,32.735 49.913,32.547 49.500 C 32.359 49.087,32.053 48.413,31.867 48.000 C 30.740 45.492,28.870 41.382,28.315 40.192 C 27.959 39.426,27.667 38.773,27.667 38.740 C 27.667 38.706,27.217 37.730,26.667 36.570 C 26.117 35.409,25.667 34.436,25.667 34.407 C 25.667 34.378,25.067 33.103,24.333 31.573 C 23.600 30.043,22.998 28.745,22.996 28.687 C 22.983 28.313,22.399 27.865,22.167 28.051 M86.278 65.611 C 86.112 65.777,86.144 66.534,86.313 66.430 C 86.393 66.380,86.458 66.151,86.458 65.920 C 86.458 65.466,86.445 65.443,86.278 65.611 M59.167 66.994 C 59.167 67.083,59.335 67.243,59.542 67.352 C 59.915 67.547,59.915 67.547,59.599 67.191 C 59.246 66.794,59.167 66.757,59.167 66.994 M60.331 67.826 C 60.559 68.001,60.774 68.115,60.809 68.080 C 60.918 67.971,60.369 67.500,60.137 67.504 C 60.016 67.506,60.103 67.651,60.331 67.826 M85.576 68.178 C 85.516 68.276,85.507 68.396,85.556 68.444 C 85.675 68.564,86.000 68.353,86.000 68.157 C 86.000 67.944,85.712 67.958,85.576 68.178 M63.083 69.586 C 63.885 70.257,64.167 70.388,64.167 70.089 C 64.167 69.948,64.051 69.833,63.910 69.833 C 63.768 69.833,63.492 69.683,63.295 69.500 C 63.098 69.317,62.858 69.167,62.760 69.167 C 62.663 69.168,62.808 69.356,63.083 69.586 M85.167 69.500 C 85.167 69.825,85.343 69.934,85.544 69.734 C 85.678 69.600,85.503 69.167,85.316 69.167 C 85.234 69.167,85.167 69.317,85.167 69.500 M84.845 70.958 C 84.855 71.364,84.873 71.379,85.000 71.083 C 85.196 70.628,85.196 70.500,85.000 70.500 C 84.908 70.500,84.839 70.706,84.845 70.958 M66.083 71.500 C 66.249 71.683,66.463 71.833,66.557 71.833 C 66.652 71.833,66.569 71.683,66.372 71.500 C 66.175 71.317,65.962 71.167,65.898 71.167 C 65.834 71.167,65.917 71.317,66.083 71.500 M84.568 71.729 C 84.429 72.092,84.526 72.190,84.837 71.998 C 85.027 71.880,85.037 71.803,84.879 71.646 C 84.722 71.488,84.654 71.506,84.568 71.729 M66.761 71.982 C 66.710 72.064,66.859 72.179,67.091 72.237 C 67.347 72.301,67.468 72.417,67.398 72.531 C 67.330 72.641,67.356 72.672,67.463 72.606 C 67.562 72.545,67.691 72.571,67.748 72.664 C 67.883 72.882,68.167 72.884,68.167 72.667 C 68.167 72.575,68.068 72.500,67.948 72.500 C 67.828 72.500,67.569 72.350,67.372 72.167 C 66.970 71.793,66.893 71.769,66.761 71.982 M68.333 72.974 C 68.333 73.195,68.990 73.733,69.111 73.611 C 69.171 73.551,69.084 73.352,68.918 73.168 C 68.603 72.820,68.333 72.731,68.333 72.974 M69.333 73.640 C 69.333 73.717,69.521 73.865,69.750 73.970 C 70.231 74.189,70.301 74.056,69.875 73.732 C 69.537 73.475,69.333 73.441,69.333 73.640 M84.025 74.148 C 83.902 74.226,83.827 74.411,83.859 74.559 C 83.902 74.763,83.964 74.727,84.109 74.415 C 84.215 74.187,84.290 74.001,84.276 74.003 C 84.262 74.004,84.149 74.069,84.025 74.148 M70.750 74.613 C 70.933 74.789,71.233 74.986,71.417 75.050 L 71.750 75.167 71.417 74.905 C 71.233 74.760,70.933 74.563,70.750 74.467 L 70.417 74.292 70.750 74.613 M73.982 76.843 C 74.201 77.026,74.421 77.135,74.470 77.086 C 74.576 76.980,73.989 76.510,73.750 76.511 C 73.658 76.511,73.763 76.660,73.982 76.843 M74.833 77.250 C 74.833 77.296,74.983 77.483,75.167 77.667 C 75.541 78.041,75.607 77.905,75.268 77.458 C 75.057 77.180,74.833 77.073,74.833 77.250 M82.833 78.260 C 82.833 78.502,82.905 78.642,83.000 78.583 C 83.092 78.527,83.167 78.335,83.167 78.157 C 83.167 77.979,83.092 77.833,83.000 77.833 C 82.908 77.833,82.833 78.025,82.833 78.260 M77.167 78.957 C 77.167 79.057,77.689 79.464,78.327 79.861 C 78.964 80.258,79.489 80.682,79.493 80.802 C 79.497 80.921,79.575 80.973,79.667 80.917 C 79.966 80.732,79.844 80.543,79.240 80.256 C 78.914 80.102,78.606 79.868,78.555 79.737 C 78.505 79.607,78.346 79.500,78.201 79.500 C 78.057 79.500,77.765 79.337,77.552 79.138 C 77.340 78.938,77.167 78.857,77.167 78.957 M82.688 79.150 C 82.562 79.230,82.493 79.397,82.535 79.522 C 82.588 79.680,82.672 79.635,82.811 79.375 C 83.033 78.960,83.021 78.939,82.688 79.150 M82.167 80.861 C 82.167 81.060,82.188 81.191,82.214 81.153 C 82.240 81.115,82.361 80.952,82.484 80.792 C 82.675 80.542,82.669 80.500,82.437 80.500 C 82.271 80.500,82.167 80.639,82.167 80.861 M80.613 81.276 C 80.486 81.403,80.802 81.833,81.020 81.833 C 81.101 81.833,81.167 81.758,81.167 81.667 C 81.167 81.575,81.050 81.500,80.907 81.500 C 80.764 81.500,80.693 81.425,80.750 81.333 C 80.866 81.145,80.779 81.109,80.613 81.276 M82.000 81.841 C 82.000 81.948,81.891 81.994,81.758 81.943 C 81.596 81.881,81.548 81.930,81.611 82.096 C 81.688 82.296,81.757 82.303,81.978 82.135 C 82.128 82.021,82.274 81.914,82.303 81.897 C 82.332 81.880,82.276 81.817,82.178 81.757 C 82.080 81.696,82.000 81.734,82.000 81.841 " stroke="none" fill="#df7611" fill-rule="evenodd"></path><path id="path1" d="M51.833 21.869 C 51.833 22.178,52.171 22.500,52.497 22.500 C 52.641 22.500,52.868 22.650,53.000 22.833 C 53.132 23.017,53.337 23.167,53.456 23.167 C 53.724 23.167,54.332 23.502,54.665 23.834 C 54.803 23.973,55.142 24.194,55.417 24.326 C 55.692 24.458,56.178 24.758,56.498 24.992 C 56.818 25.225,57.231 25.499,57.415 25.599 C 58.975 26.448,62.044 28.459,62.139 28.695 C 62.169 28.771,62.282 28.834,62.389 28.834 C 62.496 28.835,62.823 29.060,63.116 29.334 C 63.409 29.609,63.694 29.833,63.750 29.833 C 64.008 29.833,64.984 30.629,64.874 30.750 C 64.806 30.825,64.838 30.837,64.945 30.775 C 65.052 30.714,65.240 30.762,65.362 30.881 C 65.484 31.001,65.940 31.343,66.375 31.641 C 66.810 31.939,67.167 32.254,67.167 32.341 C 67.167 32.429,67.317 32.500,67.500 32.500 C 67.683 32.500,67.833 32.562,67.833 32.639 C 67.833 32.715,68.040 32.883,68.292 33.013 C 68.544 33.144,68.949 33.456,69.192 33.708 C 69.435 33.960,69.684 34.167,69.745 34.167 C 69.974 34.167,71.439 35.257,72.029 35.867 C 72.365 36.215,72.705 36.500,72.785 36.500 C 72.864 36.500,73.264 36.798,73.673 37.162 C 74.082 37.526,74.474 37.826,74.543 37.829 C 74.613 37.831,74.905 38.058,75.193 38.333 C 75.481 38.608,75.782 38.833,75.863 38.833 C 75.944 38.833,76.395 39.208,76.866 39.667 C 77.336 40.125,77.790 40.500,77.874 40.500 C 77.957 40.500,78.314 40.800,78.667 41.167 C 79.019 41.533,79.388 41.833,79.487 41.833 C 79.585 41.833,79.947 42.103,80.291 42.432 C 80.635 42.762,81.179 43.231,81.500 43.474 C 81.821 43.717,82.346 44.182,82.667 44.505 C 82.987 44.829,83.511 45.278,83.831 45.503 C 84.151 45.728,84.777 46.269,85.223 46.706 C 85.669 47.143,86.099 47.500,86.179 47.500 C 86.260 47.500,86.833 47.997,87.454 48.604 C 88.075 49.212,88.846 49.905,89.167 50.144 C 89.487 50.384,89.871 50.712,90.020 50.873 C 90.930 51.865,90.840 50.814,89.855 48.951 C 88.810 46.976,87.467 44.416,86.209 42.000 C 83.684 37.153,83.093 36.028,82.665 35.250 C 82.413 34.792,81.860 33.760,81.437 32.958 C 78.586 27.558,77.836 26.157,77.551 25.698 C 77.420 25.487,77.260 25.006,77.196 24.631 L 77.080 23.949 75.998 23.910 C 75.403 23.888,74.579 23.786,74.167 23.684 C 71.805 23.101,67.895 22.478,63.500 21.984 C 60.793 21.680,51.833 21.591,51.833 21.869 M94.098 40.708 C 94.066 40.823,93.945 41.254,93.831 41.667 C 93.716 42.079,93.492 42.829,93.333 43.333 C 93.175 43.837,92.950 44.587,92.833 45.000 C 92.717 45.413,92.492 46.163,92.334 46.667 C 92.176 47.171,91.878 48.146,91.672 48.833 C 91.466 49.521,91.229 50.258,91.146 50.471 C 90.945 50.990,91.064 51.134,91.798 51.259 C 92.138 51.317,92.642 51.428,92.917 51.505 C 93.192 51.581,93.735 51.724,94.125 51.822 C 95.283 52.113,96.223 52.364,96.667 52.500 C 96.896 52.570,97.421 52.720,97.833 52.833 C 98.246 52.946,98.733 53.095,98.917 53.164 C 99.100 53.233,99.775 53.453,100.417 53.653 C 101.058 53.853,101.733 54.081,101.917 54.158 C 102.100 54.236,102.513 54.390,102.833 54.500 C 103.154 54.610,103.567 54.761,103.750 54.835 C 103.933 54.909,104.421 55.095,104.833 55.248 C 105.246 55.402,105.808 55.625,106.083 55.744 C 106.358 55.863,106.883 56.090,107.250 56.248 C 107.617 56.406,108.292 56.708,108.750 56.919 C 110.525 57.735,110.778 57.638,109.720 56.549 C 109.520 56.343,109.164 55.923,108.929 55.615 C 108.695 55.307,107.827 54.360,107.001 53.510 C 106.176 52.661,105.500 51.861,105.500 51.733 C 105.500 51.605,105.385 51.500,105.245 51.500 C 105.104 51.500,104.943 51.379,104.886 51.231 C 104.829 51.083,104.269 50.453,103.641 49.831 C 103.014 49.210,102.500 48.623,102.500 48.527 C 102.500 48.431,102.294 48.227,102.042 48.073 C 101.790 47.919,101.133 47.272,100.583 46.635 C 97.462 43.019,94.268 40.101,94.098 40.708 " stroke="none" fill="#bebeb6" fill-rule="evenodd"></path><path id="path2" d="M78.833 25.625 C 78.833 25.696,78.983 25.847,79.167 25.961 C 79.350 26.076,79.500 26.112,79.500 26.042 C 79.500 25.971,79.350 25.820,79.167 25.705 C 78.983 25.591,78.833 25.555,78.833 25.625 M81.500 27.919 C 81.500 28.084,82.382 28.840,82.471 28.751 C 82.542 28.681,82.301 28.422,81.791 28.021 C 81.631 27.895,81.500 27.849,81.500 27.919 M85.167 31.220 C 85.167 31.358,86.736 32.820,86.807 32.749 C 86.840 32.716,86.614 32.440,86.304 32.136 C 85.606 31.450,85.167 31.096,85.167 31.220 M110.571 57.833 C 110.571 58.017,110.630 58.167,110.702 58.167 C 110.774 58.167,110.833 58.017,110.833 57.833 C 110.833 57.650,110.774 57.500,110.702 57.500 C 110.630 57.500,110.571 57.650,110.571 57.833 M153.500 73.333 C 153.500 73.433,152.833 73.500,151.833 73.500 C 150.833 73.500,150.167 73.567,150.167 73.667 C 150.167 73.758,149.792 73.833,149.333 73.833 C 148.875 73.833,148.500 73.908,148.500 74.000 C 148.500 74.092,148.200 74.167,147.833 74.167 C 147.467 74.167,147.167 74.242,147.167 74.333 C 147.167 74.425,146.867 74.500,146.500 74.500 C 146.133 74.500,145.833 74.575,145.833 74.667 C 145.833 74.758,145.608 74.833,145.333 74.833 C 145.058 74.833,144.833 74.908,144.833 75.000 C 144.833 75.092,144.683 75.167,144.500 75.167 C 144.317 75.167,144.167 75.242,144.167 75.333 C 144.167 75.425,143.942 75.500,143.667 75.500 C 143.392 75.500,143.167 75.575,143.167 75.667 C 143.167 75.758,143.017 75.833,142.833 75.833 C 142.650 75.833,142.500 75.908,142.500 76.000 C 142.500 76.092,142.350 76.167,142.167 76.167 C 141.983 76.167,141.833 76.242,141.833 76.333 C 141.833 76.425,141.683 76.500,141.500 76.500 C 141.317 76.500,141.167 76.575,141.167 76.667 C 141.167 76.758,141.017 76.833,140.833 76.833 C 140.650 76.833,140.500 76.908,140.500 77.000 C 140.500 77.092,140.402 77.167,140.281 77.167 C 140.161 77.167,139.902 77.317,139.705 77.500 C 139.508 77.683,139.248 77.833,139.127 77.833 C 139.006 77.833,138.799 77.983,138.667 78.167 C 138.535 78.350,138.346 78.500,138.248 78.500 C 138.150 78.500,137.738 78.800,137.333 79.167 C 136.928 79.533,136.536 79.833,136.463 79.833 C 136.288 79.833,133.167 82.955,133.167 83.130 C 133.167 83.203,132.867 83.595,132.500 84.000 C 132.133 84.405,131.833 84.817,131.833 84.915 C 131.833 85.013,131.683 85.201,131.500 85.333 C 131.317 85.465,131.167 85.673,131.167 85.794 C 131.167 85.915,131.017 86.175,130.833 86.372 C 130.650 86.569,130.500 86.828,130.500 86.948 C 130.500 87.068,130.425 87.167,130.333 87.167 C 130.242 87.167,130.167 87.317,130.167 87.500 C 130.167 87.683,130.092 87.833,130.000 87.833 C 129.908 87.833,129.833 87.983,129.833 88.167 C 129.833 88.350,129.758 88.500,129.667 88.500 C 129.575 88.500,129.500 88.650,129.500 88.833 C 129.500 89.017,129.425 89.167,129.333 89.167 C 129.242 89.167,129.167 89.317,129.167 89.500 C 129.167 89.683,129.092 89.833,129.000 89.833 C 128.908 89.833,128.833 90.016,128.833 90.240 C 128.833 90.464,128.758 90.693,128.667 90.750 C 128.575 90.807,128.500 90.999,128.500 91.177 C 128.500 91.354,128.425 91.500,128.333 91.500 C 128.242 91.500,128.167 91.725,128.167 92.000 C 128.167 92.275,128.092 92.500,128.000 92.500 C 127.908 92.500,127.833 92.758,127.833 93.073 C 127.833 93.389,127.758 93.693,127.667 93.750 C 127.575 93.807,127.500 94.107,127.500 94.417 C 127.500 94.727,127.425 95.027,127.333 95.083 C 127.242 95.140,127.167 95.557,127.167 96.010 C 127.167 96.463,127.092 96.833,127.000 96.833 C 126.900 96.833,126.833 97.497,126.833 98.490 C 126.833 99.415,126.760 100.193,126.667 100.250 C 126.575 100.307,126.500 100.944,126.500 101.667 C 126.500 102.389,126.575 103.027,126.667 103.083 C 126.760 103.141,126.833 103.918,126.833 104.843 C 126.833 105.837,126.900 106.500,127.000 106.500 C 127.092 106.500,127.167 106.875,127.167 107.333 C 127.167 107.792,127.242 108.167,127.333 108.167 C 127.425 108.167,127.500 108.467,127.500 108.833 C 127.500 109.200,127.575 109.500,127.667 109.500 C 127.758 109.500,127.833 109.758,127.833 110.073 C 127.833 110.389,127.908 110.693,128.000 110.750 C 128.092 110.807,128.167 111.032,128.167 111.250 C 128.167 111.468,128.242 111.693,128.333 111.750 C 128.425 111.807,128.500 111.999,128.500 112.177 C 128.500 112.354,128.575 112.500,128.667 112.500 C 128.758 112.500,128.833 112.683,128.833 112.907 C 128.833 113.131,128.908 113.360,129.000 113.417 C 129.092 113.473,129.167 113.665,129.167 113.843 C 129.167 114.021,129.242 114.167,129.333 114.167 C 129.425 114.167,129.500 114.317,129.500 114.500 C 129.500 114.683,129.575 114.833,129.667 114.833 C 129.758 114.833,129.833 114.983,129.833 115.167 C 129.833 115.350,129.908 115.500,130.000 115.500 C 130.092 115.500,130.167 115.598,130.167 115.719 C 130.167 115.839,130.317 116.098,130.500 116.295 C 130.683 116.492,130.833 116.768,130.833 116.910 C 130.833 117.051,130.896 117.167,130.972 117.167 C 131.048 117.167,131.216 117.373,131.346 117.625 C 131.475 117.877,131.713 118.205,131.874 118.353 C 132.035 118.501,132.167 118.698,132.167 118.791 C 132.167 118.884,132.467 119.269,132.833 119.647 C 133.200 120.025,133.500 120.399,133.500 120.479 C 133.500 120.676,135.670 122.833,135.868 122.833 C 135.955 122.833,136.314 123.133,136.667 123.500 C 137.019 123.867,137.389 124.167,137.488 124.167 C 137.588 124.167,137.905 124.392,138.193 124.667 C 138.481 124.942,138.817 125.167,138.941 125.167 C 139.065 125.167,139.167 125.242,139.167 125.333 C 139.167 125.425,139.265 125.500,139.385 125.500 C 139.505 125.500,139.765 125.650,139.962 125.833 C 140.158 126.017,140.435 126.167,140.576 126.167 C 140.718 126.167,140.833 126.242,140.833 126.333 C 140.833 126.425,140.983 126.500,141.167 126.500 C 141.350 126.500,141.500 126.575,141.500 126.667 C 141.500 126.758,141.650 126.833,141.833 126.833 C 142.017 126.833,142.167 126.908,142.167 127.000 C 142.167 127.092,142.317 127.167,142.500 127.167 C 142.683 127.167,142.833 127.242,142.833 127.333 C 142.833 127.425,142.979 127.500,143.157 127.500 C 143.335 127.500,143.527 127.575,143.583 127.667 C 143.640 127.758,143.869 127.833,144.093 127.833 C 144.317 127.833,144.500 127.908,144.500 128.000 C 144.500 128.092,144.725 128.167,145.000 128.167 C 145.275 128.167,145.500 128.242,145.500 128.333 C 145.500 128.425,145.725 128.500,146.000 128.500 C 146.275 128.500,146.500 128.575,146.500 128.667 C 146.500 128.758,146.800 128.833,147.167 128.833 C 147.533 128.833,147.833 128.908,147.833 129.000 C 147.833 129.092,148.208 129.167,148.667 129.167 C 149.125 129.167,149.500 129.242,149.500 129.333 C 149.500 129.430,150.024 129.500,150.740 129.500 C 151.422 129.500,152.027 129.575,152.083 129.667 C 152.146 129.768,153.363 129.833,155.177 129.833 C 157.059 129.833,158.167 129.772,158.167 129.667 C 158.167 129.570,158.691 129.500,159.407 129.500 C 160.089 129.500,160.693 129.425,160.750 129.333 C 160.807 129.242,161.182 129.167,161.583 129.167 C 161.985 129.167,162.360 129.092,162.417 129.000 C 162.473 128.908,162.736 128.833,163.000 128.833 C 163.264 128.833,163.527 128.758,163.583 128.667 C 163.640 128.575,163.944 128.500,164.260 128.500 C 164.575 128.500,164.833 128.425,164.833 128.333 C 164.833 128.242,165.016 128.167,165.240 128.167 C 165.464 128.167,165.693 128.092,165.750 128.000 C 165.807 127.908,165.999 127.833,166.177 127.833 C 166.354 127.833,166.500 127.758,166.500 127.667 C 166.500 127.575,166.683 127.500,166.907 127.500 C 167.131 127.500,167.360 127.425,167.417 127.333 C 167.473 127.242,167.665 127.167,167.843 127.167 C 168.021 127.167,168.167 127.092,168.167 127.000 C 168.167 126.908,168.317 126.833,168.500 126.833 C 168.683 126.833,168.833 126.758,168.833 126.667 C 168.833 126.575,168.949 126.500,169.090 126.500 C 169.232 126.500,169.508 126.350,169.705 126.167 C 169.902 125.983,170.161 125.833,170.281 125.833 C 170.402 125.833,170.500 125.758,170.500 125.667 C 170.500 125.575,170.633 125.500,170.797 125.500 C 170.960 125.500,171.201 125.350,171.333 125.167 C 171.465 124.983,171.670 124.833,171.788 124.833 C 171.906 124.833,172.238 124.608,172.526 124.333 C 172.814 124.058,173.116 123.833,173.198 123.833 C 173.393 123.833,177.833 119.396,177.833 119.200 C 177.833 119.117,178.058 118.814,178.333 118.526 C 178.608 118.238,178.833 117.906,178.833 117.788 C 178.833 117.670,178.983 117.465,179.167 117.333 C 179.350 117.201,179.500 116.960,179.500 116.797 C 179.500 116.633,179.575 116.500,179.667 116.500 C 179.758 116.500,179.833 116.402,179.833 116.281 C 179.833 116.161,179.983 115.902,180.167 115.705 C 180.350 115.508,180.500 115.232,180.500 115.090 C 180.500 114.949,180.575 114.833,180.667 114.833 C 180.758 114.833,180.833 114.683,180.833 114.500 C 180.833 114.317,180.908 114.167,181.000 114.167 C 181.092 114.167,181.167 114.021,181.167 113.843 C 181.167 113.665,181.242 113.473,181.333 113.417 C 181.425 113.360,181.500 113.131,181.500 112.907 C 181.500 112.683,181.575 112.500,181.667 112.500 C 181.758 112.500,181.833 112.354,181.833 112.177 C 181.833 111.999,181.908 111.807,182.000 111.750 C 182.092 111.693,182.167 111.464,182.167 111.240 C 182.167 111.016,182.242 110.833,182.333 110.833 C 182.425 110.833,182.500 110.575,182.500 110.260 C 182.500 109.944,182.575 109.640,182.667 109.583 C 182.758 109.527,182.833 109.264,182.833 109.000 C 182.833 108.736,182.908 108.473,183.000 108.417 C 183.092 108.360,183.167 107.985,183.167 107.583 C 183.167 107.182,183.242 106.807,183.333 106.750 C 183.425 106.693,183.500 106.093,183.500 105.417 C 183.500 104.740,183.575 104.140,183.667 104.083 C 183.766 104.022,183.833 102.946,183.833 101.417 C 183.833 99.887,183.766 98.811,183.667 98.750 C 183.575 98.693,183.500 98.089,183.500 97.407 C 183.500 96.691,183.430 96.167,183.333 96.167 C 183.242 96.167,183.167 95.792,183.167 95.333 C 183.167 94.875,183.092 94.500,183.000 94.500 C 182.908 94.500,182.833 94.200,182.833 93.833 C 182.833 93.467,182.758 93.167,182.667 93.167 C 182.575 93.167,182.500 92.942,182.500 92.667 C 182.500 92.392,182.425 92.167,182.333 92.167 C 182.242 92.167,182.167 91.942,182.167 91.667 C 182.167 91.392,182.092 91.167,182.000 91.167 C 181.908 91.167,181.833 90.984,181.833 90.760 C 181.833 90.536,181.758 90.307,181.667 90.250 C 181.575 90.193,181.500 90.001,181.500 89.823 C 181.500 89.646,181.425 89.500,181.333 89.500 C 181.242 89.500,181.167 89.350,181.167 89.167 C 181.167 88.983,181.092 88.833,181.000 88.833 C 180.908 88.833,180.833 88.683,180.833 88.500 C 180.833 88.317,180.758 88.167,180.667 88.167 C 180.575 88.167,180.500 88.017,180.500 87.833 C 180.500 87.650,180.425 87.500,180.333 87.500 C 180.242 87.500,180.167 87.384,180.167 87.243 C 180.167 87.102,180.017 86.825,179.833 86.628 C 179.650 86.431,179.500 86.172,179.500 86.052 C 179.500 85.932,179.425 85.833,179.333 85.833 C 179.242 85.833,179.166 85.740,179.166 85.625 C 179.166 85.510,178.941 85.154,178.667 84.833 C 178.392 84.512,178.167 84.188,178.167 84.112 C 178.167 84.036,177.867 83.686,177.500 83.333 C 177.133 82.981,176.833 82.631,176.832 82.555 C 176.829 82.336,175.475 80.944,174.833 80.498 C 174.512 80.276,173.975 79.810,173.638 79.464 C 173.302 79.117,172.935 78.833,172.824 78.833 C 172.713 78.833,172.501 78.702,172.353 78.541 C 172.205 78.379,171.877 78.142,171.625 78.012 C 171.373 77.883,171.167 77.715,171.167 77.639 C 171.167 77.562,171.051 77.500,170.910 77.500 C 170.768 77.500,170.492 77.350,170.295 77.167 C 170.098 76.983,169.839 76.833,169.719 76.833 C 169.598 76.833,169.500 76.758,169.500 76.667 C 169.500 76.575,169.350 76.500,169.167 76.500 C 168.983 76.500,168.833 76.425,168.833 76.333 C 168.833 76.242,168.683 76.167,168.500 76.167 C 168.317 76.167,168.167 76.092,168.167 76.000 C 168.167 75.908,168.021 75.833,167.843 75.833 C 167.665 75.833,167.473 75.758,167.417 75.667 C 167.360 75.575,167.131 75.500,166.907 75.500 C 166.683 75.500,166.500 75.425,166.500 75.333 C 166.500 75.242,166.354 75.167,166.177 75.167 C 165.999 75.167,165.807 75.092,165.750 75.000 C 165.693 74.908,165.431 74.833,165.167 74.833 C 164.902 74.833,164.640 74.758,164.583 74.667 C 164.527 74.575,164.260 74.500,163.990 74.500 C 163.721 74.500,163.500 74.425,163.500 74.333 C 163.500 74.242,163.200 74.167,162.833 74.167 C 162.467 74.167,162.167 74.092,162.167 74.000 C 162.167 73.908,161.796 73.833,161.343 73.833 C 160.890 73.833,160.473 73.758,160.417 73.667 C 160.360 73.575,159.613 73.500,158.750 73.500 C 157.887 73.500,157.140 73.425,157.083 73.333 C 157.025 73.239,156.220 73.167,155.240 73.167 C 154.191 73.167,153.500 73.233,153.500 73.333 M191.833 101.500 L 191.833 128.833 197.000 128.833 L 202.167 128.833 202.167 120.167 L 202.167 111.500 209.000 111.500 C 213.444 111.500,215.833 111.442,215.833 111.333 C 215.833 111.238,216.333 111.167,217.000 111.167 C 217.667 111.167,218.167 111.095,218.167 111.000 C 218.167 110.908,218.542 110.833,219.000 110.833 C 219.458 110.833,219.833 110.758,219.833 110.667 C 219.833 110.575,220.133 110.500,220.500 110.500 C 220.867 110.500,221.167 110.425,221.167 110.333 C 221.167 110.242,221.392 110.167,221.667 110.167 C 221.942 110.167,222.167 110.092,222.167 110.000 C 222.167 109.908,222.350 109.833,222.573 109.833 C 222.797 109.833,223.027 109.758,223.083 109.667 C 223.140 109.575,223.332 109.500,223.510 109.500 C 223.688 109.500,223.833 109.425,223.833 109.333 C 223.833 109.242,223.983 109.167,224.167 109.167 C 224.350 109.167,224.500 109.092,224.500 109.000 C 224.500 108.908,224.650 108.833,224.833 108.833 C 225.017 108.833,225.167 108.758,225.167 108.667 C 225.167 108.575,225.317 108.500,225.500 108.500 C 225.683 108.500,225.833 108.438,225.833 108.361 C 225.833 108.285,226.040 108.117,226.292 107.988 C 226.544 107.858,226.871 107.621,227.020 107.459 C 227.168 107.298,227.378 107.167,227.488 107.167 C 227.762 107.167,231.167 103.739,231.167 103.463 C 231.167 103.341,231.317 103.132,231.500 103.000 C 231.683 102.868,231.833 102.626,231.833 102.463 C 231.833 102.300,231.894 102.167,231.969 102.167 C 232.163 102.167,232.833 100.862,232.833 100.484 C 232.833 100.310,232.908 100.167,233.000 100.167 C 233.092 100.167,233.167 100.021,233.167 99.843 C 233.167 99.665,233.242 99.473,233.333 99.417 C 233.425 99.360,233.500 99.135,233.500 98.917 C 233.500 98.698,233.575 98.473,233.667 98.417 C 233.758 98.360,233.833 98.023,233.833 97.667 C 233.833 97.311,233.908 96.973,234.000 96.917 C 234.092 96.860,234.167 96.298,234.167 95.667 C 234.167 95.036,234.242 94.473,234.333 94.417 C 234.425 94.360,234.500 93.613,234.500 92.750 C 234.500 91.887,234.425 91.140,234.333 91.083 C 234.242 91.027,234.167 90.389,234.167 89.667 C 234.167 88.944,234.092 88.307,234.000 88.250 C 233.908 88.193,233.833 87.893,233.833 87.583 C 233.833 87.273,233.758 86.973,233.667 86.917 C 233.575 86.860,233.500 86.667,233.500 86.488 C 233.500 86.173,233.440 86.011,233.026 85.211 C 232.920 85.006,232.833 84.687,232.833 84.502 C 232.833 84.318,232.758 84.167,232.667 84.167 C 232.575 84.167,232.500 84.051,232.500 83.910 C 232.500 83.768,232.350 83.492,232.167 83.295 C 231.983 83.098,231.833 82.839,231.833 82.719 C 231.833 82.598,231.758 82.500,231.667 82.500 C 231.575 82.500,231.500 82.397,231.500 82.270 C 231.500 82.144,231.200 81.731,230.833 81.353 C 230.467 80.975,230.167 80.607,230.167 80.534 C 230.167 80.371,228.949 79.167,228.785 79.167 C 228.720 79.167,228.358 78.867,227.980 78.500 C 227.602 78.133,227.190 77.833,227.063 77.833 C 226.937 77.833,226.833 77.758,226.833 77.667 C 226.833 77.575,226.735 77.500,226.615 77.500 C 226.495 77.500,226.235 77.350,226.038 77.167 C 225.842 76.983,225.565 76.833,225.424 76.833 C 225.282 76.833,225.167 76.758,225.167 76.667 C 225.167 76.575,225.017 76.500,224.833 76.500 C 224.650 76.500,224.500 76.425,224.500 76.333 C 224.500 76.242,224.317 76.167,224.093 76.167 C 223.869 76.167,223.640 76.092,223.583 76.000 C 223.527 75.908,223.335 75.833,223.157 75.833 C 222.979 75.833,222.833 75.758,222.833 75.667 C 222.833 75.575,222.608 75.500,222.333 75.500 C 222.058 75.500,221.833 75.425,221.833 75.333 C 221.833 75.242,221.533 75.167,221.167 75.167 C 220.800 75.167,220.500 75.092,220.500 75.000 C 220.500 74.908,220.125 74.833,219.667 74.833 C 219.208 74.833,218.833 74.758,218.833 74.667 C 218.833 74.572,218.337 74.500,217.677 74.500 C 217.040 74.500,216.473 74.425,216.417 74.333 C 216.350 74.225,212.054 74.167,204.073 74.167 L 191.833 74.167 191.833 101.500 M238.539 78.875 L 238.583 83.583 247.042 83.627 L 255.500 83.670 255.500 106.252 L 255.500 128.833 260.667 128.833 L 265.833 128.833 265.833 106.252 L 265.833 83.670 274.292 83.627 L 282.750 83.583 282.794 78.875 L 282.839 74.167 260.667 74.167 L 238.495 74.167 238.539 78.875 M290.833 92.407 C 290.833 104.387,290.891 110.682,291.000 110.750 C 291.092 110.807,291.167 111.257,291.167 111.750 C 291.167 112.243,291.242 112.693,291.333 112.750 C 291.425 112.807,291.500 113.149,291.500 113.510 C 291.500 113.871,291.575 114.167,291.667 114.167 C 291.758 114.167,291.833 114.392,291.833 114.667 C 291.833 114.942,291.908 115.167,292.000 115.167 C 292.092 115.167,292.167 115.392,292.167 115.667 C 292.167 115.942,292.242 116.167,292.333 116.167 C 292.425 116.167,292.500 116.392,292.500 116.667 C 292.500 116.942,292.575 117.167,292.667 117.167 C 292.758 117.167,292.833 117.317,292.833 117.500 C 292.833 117.683,292.908 117.833,293.000 117.833 C 293.092 117.833,293.167 117.983,293.167 118.167 C 293.167 118.350,293.242 118.500,293.333 118.500 C 293.425 118.500,293.500 118.650,293.500 118.833 C 293.500 119.017,293.575 119.167,293.667 119.167 C 293.758 119.167,293.833 119.317,293.833 119.500 C 293.833 119.683,293.908 119.833,294.000 119.833 C 294.092 119.833,294.167 119.967,294.167 120.130 C 294.167 120.293,294.317 120.535,294.500 120.667 C 294.683 120.799,294.833 121.003,294.833 121.120 C 294.833 121.237,295.133 121.642,295.500 122.020 C 295.867 122.398,296.167 122.775,296.167 122.859 C 296.167 123.062,297.106 123.987,297.833 124.501 C 298.154 124.728,298.634 125.120,298.900 125.373 C 299.165 125.626,299.450 125.833,299.532 125.833 C 299.614 125.833,299.842 125.983,300.038 126.167 C 300.235 126.350,300.495 126.500,300.615 126.500 C 300.735 126.500,300.833 126.575,300.833 126.667 C 300.833 126.758,300.983 126.833,301.167 126.833 C 301.350 126.833,301.500 126.908,301.500 127.000 C 301.500 127.092,301.650 127.167,301.833 127.167 C 302.017 127.167,302.167 127.242,302.167 127.333 C 302.167 127.425,302.317 127.500,302.500 127.500 C 302.683 127.500,302.833 127.575,302.833 127.667 C 302.833 127.758,303.058 127.833,303.333 127.833 C 303.608 127.833,303.833 127.908,303.833 128.000 C 303.833 128.092,303.979 128.167,304.157 128.167 C 304.335 128.167,304.527 128.242,304.583 128.333 C 304.640 128.425,304.944 128.500,305.260 128.500 C 305.575 128.500,305.833 128.575,305.833 128.667 C 305.833 128.758,306.133 128.833,306.500 128.833 C 306.867 128.833,307.167 128.908,307.167 129.000 C 307.167 129.092,307.542 129.167,308.000 129.167 C 308.458 129.167,308.833 129.242,308.833 129.333 C 308.833 129.435,309.611 129.500,310.833 129.500 C 312.056 129.500,312.833 129.565,312.833 129.667 C 312.833 129.762,313.333 129.833,314.000 129.833 C 314.667 129.833,315.167 129.762,315.167 129.667 C 315.167 129.565,315.944 129.500,317.167 129.500 C 318.389 129.500,319.167 129.435,319.167 129.333 C 319.167 129.242,319.537 129.167,319.990 129.167 C 320.443 129.167,320.860 129.092,320.917 129.000 C 320.973 128.908,321.273 128.833,321.583 128.833 C 321.893 128.833,322.193 128.758,322.250 128.667 C 322.307 128.575,322.611 128.500,322.927 128.500 C 323.242 128.500,323.500 128.425,323.500 128.333 C 323.500 128.242,323.683 128.167,323.907 128.167 C 324.131 128.167,324.360 128.092,324.417 128.000 C 324.473 127.908,324.665 127.833,324.843 127.833 C 325.021 127.833,325.167 127.758,325.167 127.667 C 325.167 127.575,325.317 127.500,325.500 127.500 C 325.683 127.500,325.833 127.425,325.833 127.333 C 325.833 127.242,325.983 127.167,326.167 127.167 C 326.350 127.167,326.500 127.092,326.500 127.000 C 326.500 126.908,326.650 126.833,326.833 126.833 C 327.017 126.833,327.167 126.758,327.167 126.667 C 327.167 126.575,327.300 126.500,327.463 126.500 C 327.626 126.500,327.868 126.350,328.000 126.167 C 328.132 125.983,328.357 125.833,328.500 125.833 C 328.643 125.833,328.868 125.683,329.000 125.500 C 329.132 125.317,329.333 125.167,329.447 125.167 C 329.717 125.167,332.833 122.050,332.833 121.780 C 332.833 121.667,332.983 121.465,333.167 121.333 C 333.350 121.201,333.500 120.976,333.500 120.833 C 333.500 120.690,333.650 120.465,333.833 120.333 C 334.017 120.201,334.167 119.960,334.167 119.797 C 334.167 119.633,334.242 119.500,334.333 119.500 C 334.425 119.500,334.500 119.350,334.500 119.167 C 334.500 118.983,334.575 118.833,334.667 118.833 C 334.758 118.833,334.833 118.683,334.833 118.500 C 334.833 118.317,334.908 118.167,335.000 118.167 C 335.092 118.167,335.167 118.017,335.167 117.833 C 335.167 117.650,335.242 117.500,335.333 117.500 C 335.425 117.500,335.500 117.354,335.500 117.177 C 335.500 116.999,335.575 116.807,335.667 116.750 C 335.758 116.693,335.833 116.464,335.833 116.240 C 335.833 116.016,335.908 115.833,336.000 115.833 C 336.092 115.833,336.167 115.613,336.167 115.343 C 336.167 115.074,336.242 114.807,336.333 114.750 C 336.425 114.693,336.500 114.389,336.500 114.073 C 336.500 113.758,336.575 113.500,336.667 113.500 C 336.758 113.500,336.833 113.125,336.833 112.667 C 336.833 112.208,336.908 111.833,337.000 111.833 C 337.094 111.833,337.167 111.364,337.167 110.760 C 337.167 110.169,337.242 109.640,337.333 109.583 C 337.443 109.516,337.500 103.415,337.500 91.823 L 337.500 74.167 332.500 74.167 L 327.500 74.167 327.500 90.740 C 327.500 101.609,327.443 107.349,327.333 107.417 C 327.242 107.473,327.167 108.040,327.167 108.677 C 327.167 109.337,327.095 109.833,327.000 109.833 C 326.908 109.833,326.833 110.133,326.833 110.500 C 326.833 110.867,326.758 111.167,326.667 111.167 C 326.575 111.167,326.500 111.392,326.500 111.667 C 326.500 111.942,326.425 112.167,326.333 112.167 C 326.242 112.167,326.167 112.392,326.167 112.667 C 326.167 112.942,326.092 113.167,326.000 113.167 C 325.908 113.167,325.833 113.317,325.833 113.500 C 325.833 113.683,325.758 113.833,325.667 113.833 C 325.575 113.833,325.500 113.983,325.500 114.167 C 325.500 114.350,325.438 114.500,325.361 114.500 C 325.285 114.500,325.117 114.705,324.986 114.955 C 324.856 115.206,324.544 115.630,324.292 115.897 C 324.040 116.164,323.833 116.468,323.833 116.572 C 323.833 116.676,323.606 116.896,323.329 117.059 C 323.051 117.223,322.658 117.521,322.454 117.720 C 322.250 117.920,321.877 118.190,321.625 118.320 C 321.373 118.450,321.167 118.619,321.167 118.695 C 321.167 118.771,321.017 118.833,320.833 118.833 C 320.650 118.833,320.500 118.908,320.500 119.000 C 320.500 119.092,320.354 119.167,320.177 119.167 C 319.999 119.167,319.807 119.242,319.750 119.333 C 319.693 119.425,319.468 119.500,319.250 119.500 C 319.032 119.500,318.807 119.575,318.750 119.667 C 318.693 119.758,318.393 119.833,318.083 119.833 C 317.773 119.833,317.473 119.908,317.417 120.000 C 317.354 120.101,316.113 120.167,314.250 120.167 C 312.387 120.167,311.146 120.101,311.083 120.000 C 311.027 119.908,310.727 119.833,310.417 119.833 C 310.107 119.833,309.807 119.758,309.750 119.667 C 309.693 119.575,309.464 119.500,309.240 119.500 C 309.016 119.500,308.833 119.425,308.833 119.333 C 308.833 119.242,308.690 119.167,308.516 119.167 C 308.138 119.167,306.833 118.497,306.833 118.302 C 306.833 118.228,306.720 118.167,306.581 118.167 C 306.274 118.167,303.500 115.426,303.500 115.123 C 303.500 115.004,303.350 114.799,303.167 114.667 C 302.983 114.535,302.833 114.293,302.833 114.130 C 302.833 113.967,302.758 113.833,302.667 113.833 C 302.575 113.833,302.500 113.683,302.500 113.500 C 302.500 113.317,302.425 113.167,302.333 113.167 C 302.242 113.167,302.167 112.942,302.167 112.667 C 302.167 112.392,302.092 112.167,302.000 112.167 C 301.908 112.167,301.833 111.942,301.833 111.667 C 301.833 111.392,301.758 111.167,301.667 111.167 C 301.575 111.167,301.500 110.909,301.500 110.593 C 301.500 110.278,301.425 109.973,301.333 109.917 C 301.242 109.860,301.167 109.368,301.167 108.823 C 301.167 108.274,301.092 107.833,301.000 107.833 C 300.890 107.833,300.833 102.111,300.833 91.000 L 300.833 74.167 295.833 74.167 L 290.833 74.167 290.833 92.407 M347.167 101.500 L 347.167 128.833 352.167 128.833 L 357.167 128.833 357.167 110.052 C 357.167 89.598,357.116 90.688,357.986 92.375 C 358.117 92.627,358.285 92.833,358.361 92.833 C 358.438 92.833,358.500 92.932,358.500 93.052 C 358.500 93.172,358.650 93.431,358.833 93.628 C 359.017 93.825,359.167 94.050,359.167 94.128 C 359.167 94.206,359.298 94.416,359.458 94.594 C 359.619 94.771,359.856 95.123,359.986 95.375 C 360.117 95.627,360.285 95.833,360.361 95.833 C 360.438 95.833,360.500 95.932,360.500 96.052 C 360.500 96.172,360.631 96.416,360.792 96.594 C 360.952 96.771,361.190 97.123,361.320 97.375 C 361.450 97.627,361.619 97.833,361.695 97.833 C 361.771 97.833,361.833 97.932,361.833 98.052 C 361.833 98.172,361.965 98.416,362.125 98.594 C 362.285 98.771,362.523 99.123,362.653 99.375 C 362.783 99.627,362.952 99.833,363.028 99.833 C 363.104 99.833,363.167 99.932,363.167 100.052 C 363.167 100.172,363.298 100.416,363.458 100.594 C 363.619 100.771,363.856 101.123,363.986 101.375 C 364.117 101.627,364.285 101.833,364.361 101.833 C 364.438 101.833,364.500 101.932,364.500 102.052 C 364.500 102.172,364.631 102.416,364.792 102.594 C 364.952 102.771,365.190 103.123,365.320 103.375 C 365.450 103.627,365.619 103.833,365.695 103.833 C 365.771 103.833,365.834 103.927,365.834 104.042 C 365.834 104.156,366.059 104.513,366.333 104.833 C 366.608 105.154,366.833 105.510,366.833 105.625 C 366.833 105.740,366.896 105.833,366.972 105.833 C 367.048 105.833,367.217 106.040,367.347 106.292 C 367.477 106.544,367.715 106.895,367.875 107.073 C 368.035 107.251,368.167 107.495,368.167 107.615 C 368.167 107.735,368.229 107.833,368.305 107.833 C 368.381 107.833,368.550 108.040,368.680 108.292 C 368.810 108.544,369.048 108.895,369.208 109.073 C 369.369 109.251,369.500 109.495,369.500 109.615 C 369.500 109.735,369.562 109.833,369.639 109.833 C 369.715 109.833,369.883 110.040,370.014 110.292 C 370.144 110.544,370.381 110.895,370.542 111.073 C 370.702 111.251,370.833 111.495,370.833 111.615 C 370.833 111.735,370.896 111.833,370.972 111.833 C 371.048 111.833,371.217 112.040,371.347 112.292 C 371.477 112.544,371.715 112.895,371.875 113.073 C 372.035 113.251,372.167 113.495,372.167 113.615 C 372.167 113.735,372.229 113.833,372.305 113.833 C 372.381 113.833,372.550 114.039,372.680 114.289 C 373.081 115.062,373.542 115.500,373.954 115.500 C 374.378 115.500,375.167 114.824,375.167 114.461 C 375.167 114.340,375.317 114.132,375.500 114.000 C 375.683 113.868,375.833 113.643,375.833 113.500 C 375.833 113.357,375.983 113.132,376.167 113.000 C 376.350 112.868,376.500 112.643,376.500 112.500 C 376.500 112.357,376.650 112.132,376.833 112.000 C 377.017 111.868,377.167 111.643,377.167 111.500 C 377.167 111.357,377.317 111.132,377.500 111.000 C 377.683 110.868,377.833 110.643,377.833 110.500 C 377.833 110.357,377.983 110.132,378.167 110.000 C 378.350 109.868,378.500 109.643,378.500 109.500 C 378.500 109.357,378.650 109.132,378.833 109.000 C 379.017 108.868,379.167 108.643,379.167 108.500 C 379.167 108.357,379.317 108.132,379.500 108.000 C 379.683 107.868,379.833 107.643,379.833 107.500 C 379.833 107.357,379.983 107.132,380.167 107.000 C 380.350 106.868,380.500 106.643,380.500 106.500 C 380.500 106.357,380.650 106.132,380.833 106.000 C 381.017 105.868,381.167 105.643,381.167 105.500 C 381.167 105.357,381.317 105.132,381.500 105.000 C 381.683 104.868,381.833 104.643,381.833 104.500 C 381.833 104.357,381.983 104.132,382.167 104.000 C 382.350 103.868,382.500 103.643,382.500 103.500 C 382.500 103.357,382.650 103.132,382.833 103.000 C 383.017 102.868,383.167 102.643,383.167 102.500 C 383.167 102.357,383.317 102.132,383.500 102.000 C 383.683 101.868,383.833 101.643,383.833 101.500 C 383.833 101.357,383.983 101.132,384.167 101.000 C 384.350 100.868,384.500 100.643,384.500 100.500 C 384.500 100.357,384.650 100.132,384.833 100.000 C 385.017 99.868,385.167 99.678,385.167 99.578 C 385.167 99.478,385.298 99.251,385.458 99.073 C 385.619 98.895,385.856 98.544,385.986 98.292 C 386.117 98.040,386.285 97.833,386.361 97.833 C 386.438 97.833,386.500 97.735,386.500 97.615 C 386.500 97.495,386.631 97.251,386.792 97.073 C 386.952 96.895,387.190 96.544,387.320 96.292 C 387.450 96.040,387.619 95.833,387.695 95.833 C 387.771 95.833,387.834 95.740,387.834 95.625 C 387.834 95.510,388.059 95.154,388.333 94.833 C 388.608 94.513,388.833 94.156,388.833 94.042 C 388.833 93.927,388.896 93.833,388.972 93.833 C 389.048 93.833,389.217 93.627,389.347 93.375 C 389.477 93.123,389.715 92.771,389.875 92.594 C 390.035 92.416,390.167 92.206,390.167 92.128 C 390.167 92.050,390.317 91.825,390.500 91.628 L 390.833 91.270 390.833 110.052 L 390.833 128.833 395.417 128.833 L 400.000 128.833 400.000 101.500 L 400.000 74.167 395.155 74.167 C 390.185 74.167,389.833 74.210,389.833 74.828 C 389.833 74.930,389.683 75.175,389.500 75.372 C 389.317 75.569,389.167 75.828,389.167 75.948 C 389.167 76.068,389.092 76.167,389.000 76.167 C 388.908 76.167,388.833 76.265,388.833 76.385 C 388.833 76.505,388.683 76.765,388.500 76.962 C 388.317 77.158,388.167 77.418,388.167 77.540 C 388.167 77.661,388.017 77.868,387.833 78.000 C 387.650 78.132,387.500 78.357,387.500 78.500 C 387.500 78.643,387.350 78.868,387.167 79.000 C 386.983 79.132,386.833 79.339,386.833 79.460 C 386.833 79.582,386.683 79.842,386.500 80.038 C 386.317 80.235,386.167 80.495,386.167 80.615 C 386.167 80.735,386.092 80.833,386.000 80.833 C 385.908 80.833,385.833 80.932,385.833 81.052 C 385.833 81.172,385.683 81.431,385.500 81.628 C 385.317 81.825,385.167 82.085,385.167 82.206 C 385.167 82.327,385.017 82.535,384.833 82.667 C 384.650 82.799,384.500 83.024,384.500 83.167 C 384.500 83.310,384.350 83.535,384.167 83.667 C 383.983 83.799,383.833 84.006,383.833 84.127 C 383.833 84.248,383.683 84.508,383.500 84.705 C 383.317 84.902,383.167 85.161,383.167 85.281 C 383.167 85.402,383.092 85.500,383.000 85.500 C 382.908 85.500,382.833 85.598,382.833 85.719 C 382.833 85.839,382.683 86.098,382.500 86.295 C 382.317 86.492,382.167 86.752,382.167 86.873 C 382.167 86.994,382.017 87.201,381.833 87.333 C 381.650 87.465,381.500 87.690,381.500 87.833 C 381.500 87.976,381.350 88.201,381.167 88.333 C 380.983 88.465,380.833 88.673,380.833 88.794 C 380.833 88.915,380.683 89.175,380.500 89.372 C 380.317 89.569,380.167 89.828,380.167 89.948 C 380.167 90.068,380.092 90.167,380.000 90.167 C 379.908 90.167,379.833 90.265,379.833 90.385 C 379.833 90.505,379.683 90.765,379.500 90.962 C 379.317 91.158,379.167 91.418,379.167 91.540 C 379.167 91.661,379.017 91.868,378.833 92.000 C 378.650 92.132,378.500 92.357,378.500 92.500 C 378.500 92.643,378.350 92.868,378.167 93.000 C 377.983 93.132,377.833 93.374,377.833 93.537 C 377.833 93.700,377.771 93.833,377.695 93.833 C 377.619 93.833,377.450 94.040,377.320 94.292 C 377.190 94.544,376.952 94.895,376.792 95.073 C 376.631 95.251,376.500 95.495,376.500 95.615 C 376.500 95.735,376.425 95.833,376.333 95.833 C 376.242 95.833,376.167 95.932,376.167 96.052 C 376.167 96.172,376.017 96.431,375.833 96.628 C 375.650 96.825,375.500 97.085,375.500 97.206 C 375.500 97.327,375.350 97.535,375.167 97.667 C 374.983 97.799,374.833 98.006,374.833 98.128 C 374.833 98.340,374.110 99.167,373.924 99.167 C 373.874 99.167,373.833 99.033,373.833 98.870 C 373.833 98.707,373.683 98.465,373.500 98.333 C 373.317 98.201,373.167 97.976,373.167 97.833 C 373.167 97.690,373.017 97.465,372.833 97.333 C 372.650 97.201,372.500 96.960,372.500 96.797 C 372.500 96.633,372.425 96.500,372.333 96.500 C 372.242 96.500,372.167 96.402,372.167 96.281 C 372.167 96.161,372.035 95.917,371.875 95.740 C 371.715 95.562,371.477 95.210,371.347 94.958 C 371.217 94.706,371.048 94.500,370.972 94.500 C 370.896 94.500,370.833 94.367,370.833 94.203 C 370.833 94.040,370.683 93.799,370.500 93.667 C 370.317 93.535,370.167 93.310,370.167 93.167 C 370.167 93.024,370.017 92.799,369.833 92.667 C 369.650 92.535,369.500 92.327,369.500 92.206 C 369.500 92.085,369.350 91.825,369.167 91.628 C 368.983 91.431,368.833 91.172,368.833 91.052 C 368.833 90.932,368.758 90.833,368.667 90.833 C 368.575 90.833,368.500 90.735,368.500 90.615 C 368.500 90.495,368.350 90.235,368.167 90.038 C 367.983 89.842,367.833 89.582,367.833 89.460 C 367.833 89.339,367.683 89.132,367.500 89.000 C 367.317 88.868,367.167 88.643,367.167 88.500 C 367.167 88.357,367.017 88.132,366.833 88.000 C 366.650 87.868,366.500 87.661,366.500 87.540 C 366.500 87.418,366.350 87.158,366.167 86.962 C 365.983 86.765,365.833 86.505,365.833 86.385 C 365.833 86.265,365.758 86.167,365.667 86.167 C 365.575 86.167,365.500 86.068,365.500 85.948 C 365.500 85.828,365.350 85.569,365.167 85.372 C 364.983 85.175,364.833 84.915,364.833 84.794 C 364.833 84.673,364.683 84.465,364.500 84.333 C 364.317 84.201,364.167 83.976,364.167 83.833 C 364.167 83.690,364.017 83.465,363.833 83.333 C 363.650 83.201,363.500 82.994,363.500 82.873 C 363.500 82.752,363.350 82.492,363.167 82.295 C 362.983 82.098,362.833 81.839,362.833 81.719 C 362.833 81.598,362.758 81.500,362.667 81.500 C 362.575 81.500,362.500 81.402,362.500 81.281 C 362.500 81.161,362.350 80.902,362.167 80.705 C 361.983 80.508,361.833 80.248,361.833 80.127 C 361.833 80.006,361.683 79.799,361.500 79.667 C 361.317 79.535,361.167 79.310,361.167 79.167 C 361.167 79.024,361.017 78.799,360.833 78.667 C 360.650 78.535,360.500 78.327,360.500 78.206 C 360.500 78.085,360.350 77.825,360.167 77.628 C 359.983 77.431,359.833 77.172,359.833 77.052 C 359.833 76.932,359.758 76.833,359.667 76.833 C 359.575 76.833,359.500 76.735,359.500 76.615 C 359.500 76.495,359.369 76.251,359.208 76.073 C 359.048 75.895,358.810 75.544,358.680 75.292 C 358.550 75.040,358.381 74.833,358.305 74.833 C 358.229 74.833,358.167 74.683,358.167 74.500 C 358.167 74.173,358.056 74.167,352.667 74.167 L 347.167 74.167 347.167 101.500 M158.500 83.011 C 158.500 83.097,158.800 83.167,159.167 83.167 C 159.533 83.167,159.833 83.242,159.833 83.333 C 159.833 83.425,160.058 83.500,160.333 83.500 C 160.608 83.500,160.833 83.575,160.833 83.667 C 160.833 83.758,161.058 83.833,161.333 83.833 C 161.608 83.833,161.833 83.908,161.833 84.000 C 161.833 84.092,161.983 84.167,162.167 84.167 C 162.350 84.167,162.500 84.242,162.500 84.333 C 162.500 84.425,162.650 84.500,162.833 84.500 C 163.017 84.500,163.167 84.575,163.167 84.667 C 163.167 84.758,163.317 84.833,163.500 84.833 C 163.683 84.833,163.833 84.908,163.833 85.000 C 163.833 85.092,163.967 85.167,164.130 85.167 C 164.293 85.167,164.535 85.317,164.667 85.500 C 164.799 85.683,165.005 85.833,165.126 85.833 C 165.246 85.833,165.597 86.077,165.906 86.375 C 166.215 86.673,166.846 87.217,167.309 87.583 C 167.772 87.950,168.154 88.335,168.158 88.438 C 168.163 88.542,168.467 88.936,168.833 89.313 C 169.200 89.691,169.500 90.096,169.500 90.213 C 169.500 90.331,169.650 90.535,169.833 90.667 C 170.017 90.799,170.167 91.040,170.167 91.203 C 170.167 91.367,170.242 91.500,170.333 91.500 C 170.425 91.500,170.500 91.598,170.500 91.719 C 170.500 91.839,170.650 92.098,170.833 92.295 C 171.017 92.492,171.167 92.801,171.167 92.983 C 171.167 93.165,171.242 93.360,171.333 93.417 C 171.425 93.473,171.500 93.665,171.500 93.843 C 171.500 94.021,171.575 94.167,171.667 94.167 C 171.758 94.167,171.833 94.350,171.833 94.573 C 171.833 94.797,171.908 95.027,172.000 95.083 C 172.092 95.140,172.167 95.365,172.167 95.583 C 172.167 95.802,172.242 96.027,172.333 96.083 C 172.425 96.140,172.500 96.440,172.500 96.750 C 172.500 97.060,172.575 97.360,172.667 97.417 C 172.758 97.473,172.833 97.923,172.833 98.417 C 172.833 98.910,172.908 99.360,173.000 99.417 C 173.097 99.477,173.167 100.418,173.167 101.677 C 173.167 103.003,173.103 103.833,173.000 103.833 C 172.907 103.833,172.833 104.278,172.833 104.833 C 172.833 105.389,172.759 105.833,172.667 105.833 C 172.575 105.833,172.500 106.133,172.500 106.500 C 172.500 106.867,172.425 107.167,172.333 107.167 C 172.242 107.167,172.167 107.392,172.167 107.667 C 172.167 107.942,172.092 108.167,172.000 108.167 C 171.908 108.167,171.833 108.392,171.833 108.667 C 171.833 108.942,171.758 109.167,171.667 109.167 C 171.575 109.167,171.500 109.317,171.500 109.500 C 171.500 109.683,171.425 109.833,171.333 109.833 C 171.242 109.833,171.167 109.931,171.167 110.050 C 171.167 110.357,170.775 111.164,170.625 111.165 C 170.556 111.166,170.500 111.317,170.500 111.500 C 170.500 111.683,170.425 111.833,170.333 111.833 C 170.242 111.833,170.167 111.967,170.167 112.130 C 170.167 112.293,170.017 112.535,169.833 112.667 C 169.650 112.799,169.500 113.000,169.500 113.115 C 169.500 113.361,165.732 117.167,165.488 117.167 C 165.395 117.167,165.158 117.317,164.962 117.500 C 164.765 117.683,164.505 117.833,164.385 117.833 C 164.265 117.833,164.167 117.908,164.167 118.000 C 164.167 118.092,164.017 118.167,163.833 118.167 C 163.650 118.167,163.500 118.242,163.500 118.333 C 163.500 118.425,163.350 118.500,163.167 118.500 C 162.983 118.500,162.833 118.575,162.833 118.667 C 162.833 118.758,162.683 118.833,162.500 118.833 C 162.317 118.833,162.167 118.908,162.167 119.000 C 162.167 119.092,161.984 119.167,161.760 119.167 C 161.536 119.167,161.307 119.242,161.250 119.333 C 161.193 119.425,160.968 119.500,160.750 119.500 C 160.532 119.500,160.307 119.575,160.250 119.667 C 160.193 119.758,159.931 119.833,159.667 119.833 C 159.402 119.833,159.140 119.908,159.083 120.000 C 159.027 120.092,158.539 120.167,158.000 120.167 C 157.461 120.167,156.973 120.242,156.917 120.333 C 156.859 120.426,156.082 120.500,155.157 120.500 C 154.163 120.500,153.500 120.433,153.500 120.333 C 153.500 120.241,153.056 120.167,152.500 120.167 C 151.944 120.167,151.500 120.093,151.500 120.000 C 151.500 119.908,151.200 119.833,150.833 119.833 C 150.467 119.833,150.167 119.758,150.167 119.667 C 150.167 119.575,149.984 119.500,149.760 119.500 C 149.536 119.500,149.307 119.425,149.250 119.333 C 149.193 119.242,149.001 119.167,148.823 119.167 C 148.646 119.167,148.500 119.092,148.500 119.000 C 148.500 118.908,148.395 118.833,148.266 118.833 C 147.988 118.833,146.608 118.138,146.528 117.958 C 146.497 117.890,146.345 117.833,146.190 117.833 C 146.034 117.833,145.799 117.683,145.667 117.500 C 145.535 117.317,145.323 117.167,145.197 117.167 C 145.070 117.167,144.757 116.942,144.500 116.667 C 144.243 116.392,143.969 116.166,143.891 116.165 C 143.684 116.162,142.167 114.731,142.167 114.538 C 142.167 114.448,141.867 114.064,141.500 113.687 C 141.133 113.309,140.833 112.904,140.833 112.787 C 140.833 112.669,140.683 112.465,140.500 112.333 C 140.317 112.201,140.167 111.960,140.167 111.797 C 140.167 111.633,140.092 111.500,140.000 111.500 C 139.908 111.500,139.833 111.350,139.833 111.167 C 139.833 110.983,139.777 110.833,139.708 110.832 C 139.559 110.830,139.167 110.023,139.167 109.717 C 139.167 109.598,139.092 109.500,139.000 109.500 C 138.908 109.500,138.833 109.350,138.833 109.167 C 138.833 108.983,138.758 108.833,138.667 108.833 C 138.575 108.833,138.500 108.608,138.500 108.333 C 138.500 108.058,138.425 107.833,138.333 107.833 C 138.242 107.833,138.167 107.608,138.167 107.333 C 138.167 107.058,138.092 106.833,138.000 106.833 C 137.908 106.833,137.833 106.533,137.833 106.167 C 137.833 105.800,137.758 105.500,137.667 105.500 C 137.571 105.500,137.500 105.000,137.500 104.333 C 137.500 103.667,137.429 103.167,137.333 103.167 C 137.233 103.167,137.167 102.476,137.167 101.427 C 137.167 100.446,137.239 99.641,137.333 99.583 C 137.425 99.527,137.500 99.035,137.500 98.490 C 137.500 97.941,137.574 97.500,137.667 97.500 C 137.758 97.500,137.833 97.204,137.833 96.843 C 137.833 96.482,137.908 96.140,138.000 96.083 C 138.092 96.027,138.167 95.802,138.167 95.583 C 138.167 95.365,138.242 95.140,138.333 95.083 C 138.425 95.027,138.500 94.797,138.500 94.573 C 138.500 94.350,138.575 94.167,138.667 94.167 C 138.758 94.167,138.833 93.984,138.833 93.760 C 138.833 93.536,138.908 93.307,139.000 93.250 C 139.092 93.193,139.167 93.001,139.167 92.823 C 139.167 92.646,139.242 92.500,139.333 92.500 C 139.425 92.500,139.500 92.384,139.500 92.243 C 139.500 92.102,139.650 91.825,139.833 91.628 C 140.017 91.431,140.167 91.172,140.167 91.052 C 140.167 90.932,140.229 90.833,140.305 90.833 C 140.381 90.833,140.550 90.628,140.680 90.378 C 140.810 90.127,141.123 89.704,141.375 89.436 C 141.627 89.169,141.833 88.885,141.833 88.805 C 141.833 88.725,142.244 88.249,142.746 87.746 C 143.249 87.244,143.725 86.833,143.805 86.833 C 143.885 86.833,144.186 86.608,144.474 86.333 C 144.762 86.058,145.059 85.833,145.134 85.833 C 145.209 85.833,145.416 85.702,145.594 85.542 C 145.997 85.178,147.967 84.167,148.273 84.167 C 148.398 84.167,148.500 84.092,148.500 84.000 C 148.500 83.908,148.683 83.833,148.907 83.833 C 149.131 83.833,149.360 83.758,149.417 83.667 C 149.473 83.575,149.740 83.500,150.010 83.500 C 150.279 83.500,150.500 83.425,150.500 83.333 C 150.500 83.242,150.800 83.167,151.167 83.167 C 151.533 83.167,151.833 83.094,151.833 83.006 C 151.833 82.917,152.558 82.824,153.458 82.797 C 155.907 82.726,158.500 82.836,158.500 83.011 M215.167 83.667 C 215.167 83.758,215.542 83.833,216.000 83.833 C 216.458 83.833,216.833 83.908,216.833 84.000 C 216.833 84.092,217.054 84.167,217.323 84.167 C 217.593 84.167,217.860 84.242,217.917 84.333 C 217.973 84.425,218.203 84.500,218.427 84.500 C 218.650 84.500,218.833 84.575,218.833 84.667 C 218.833 84.758,218.983 84.833,219.167 84.833 C 219.350 84.833,219.500 84.908,219.500 85.000 C 219.500 85.092,219.633 85.167,219.797 85.167 C 219.960 85.167,220.201 85.317,220.333 85.500 C 220.465 85.683,220.655 85.833,220.754 85.833 C 221.020 85.833,222.048 86.845,222.321 87.375 C 222.450 87.627,222.619 87.833,222.695 87.833 C 222.771 87.833,222.833 87.983,222.833 88.167 C 222.833 88.350,222.908 88.500,223.000 88.500 C 223.092 88.500,223.167 88.650,223.167 88.833 C 223.167 89.017,223.242 89.167,223.333 89.167 C 223.425 89.167,223.500 89.350,223.500 89.573 C 223.500 89.797,223.575 90.027,223.667 90.083 C 223.758 90.140,223.833 90.515,223.833 90.917 C 223.833 91.318,223.908 91.693,224.000 91.750 C 224.092 91.807,224.167 92.294,224.167 92.833 C 224.167 93.373,224.092 93.860,224.000 93.917 C 223.908 93.973,223.833 94.353,223.833 94.760 C 223.833 95.167,223.758 95.500,223.667 95.500 C 223.575 95.500,223.500 95.725,223.500 96.000 C 223.500 96.275,223.425 96.500,223.333 96.500 C 223.242 96.500,223.167 96.650,223.167 96.833 C 223.167 97.017,223.092 97.167,223.000 97.167 C 222.908 97.167,222.833 97.279,222.833 97.416 C 222.833 97.739,220.069 100.500,219.746 100.500 C 219.611 100.500,219.500 100.575,219.500 100.667 C 219.500 100.758,219.350 100.833,219.167 100.833 C 218.983 100.833,218.833 100.908,218.833 101.000 C 218.833 101.092,218.688 101.167,218.510 101.167 C 218.332 101.167,218.140 101.242,218.083 101.333 C 218.027 101.425,217.797 101.500,217.573 101.500 C 217.350 101.500,217.167 101.575,217.167 101.667 C 217.167 101.758,216.871 101.833,216.510 101.833 C 216.149 101.833,215.807 101.908,215.750 102.000 C 215.684 102.107,213.220 102.167,208.907 102.167 L 202.167 102.167 202.167 92.833 L 202.167 83.500 208.667 83.500 C 212.889 83.500,215.167 83.558,215.167 83.667 " stroke="none" fill="#4c4c54" fill-rule="evenodd"></path><path id="path3" d="M40.116 0.292 C 40.174 0.452,40.798 1.596,41.503 2.833 C 42.208 4.071,43.032 5.533,43.334 6.083 C 43.635 6.633,44.424 8.058,45.086 9.250 C 47.254 13.153,50.278 18.726,50.897 19.958 C 51.231 20.623,51.561 21.167,51.630 21.167 C 51.736 21.167,52.628 19.705,54.770 16.023 C 54.964 15.690,55.518 14.779,56.001 14.000 C 56.485 13.221,57.104 12.208,57.376 11.750 C 57.649 11.292,58.019 10.710,58.198 10.458 C 58.484 10.055,58.492 9.986,58.263 9.899 C 58.119 9.843,58.051 9.713,58.111 9.608 C 58.171 9.503,58.160 9.471,58.087 9.537 C 57.931 9.678,57.039 9.215,56.647 8.792 C 56.499 8.631,56.287 8.500,56.177 8.500 C 56.067 8.500,55.650 8.275,55.250 8.000 C 54.850 7.725,54.477 7.500,54.421 7.500 C 54.365 7.500,54.158 7.350,53.962 7.167 C 53.765 6.984,53.399 6.743,53.147 6.631 C 52.896 6.520,52.734 6.359,52.788 6.272 C 52.841 6.186,52.811 6.161,52.720 6.217 C 52.630 6.273,52.285 6.134,51.953 5.909 C 51.622 5.684,51.235 5.500,51.092 5.500 C 50.950 5.500,50.833 5.443,50.833 5.374 C 50.833 5.305,50.590 5.144,50.292 5.017 C 49.994 4.890,49.489 4.592,49.171 4.356 C 48.852 4.119,48.455 3.905,48.289 3.879 C 48.122 3.854,47.825 3.683,47.628 3.500 C 47.431 3.317,47.149 3.167,47.000 3.167 C 46.851 3.167,46.569 3.017,46.372 2.833 C 46.175 2.650,45.898 2.500,45.757 2.500 C 45.616 2.500,45.500 2.425,45.500 2.333 C 45.500 2.242,45.350 2.167,45.167 2.167 C 44.983 2.167,44.833 2.092,44.833 2.000 C 44.833 1.908,44.683 1.833,44.500 1.833 C 44.317 1.833,44.167 1.758,44.167 1.667 C 44.167 1.575,43.998 1.498,43.792 1.496 C 43.585 1.494,43.229 1.346,43.000 1.167 C 42.771 0.987,42.448 0.839,42.282 0.837 C 42.097 0.835,42.026 0.759,42.099 0.641 C 42.165 0.535,42.149 0.491,42.064 0.544 C 41.980 0.596,41.612 0.498,41.247 0.325 C 40.383 -0.083,39.976 -0.095,40.116 0.292 M31.109 12.401 C 30.957 12.632,30.833 12.899,30.833 12.994 C 30.833 13.089,30.758 13.167,30.667 13.167 C 30.575 13.167,30.500 13.317,30.500 13.500 C 30.500 13.683,30.425 13.833,30.333 13.833 C 30.242 13.833,30.167 13.914,30.167 14.012 C 30.167 14.110,29.942 14.517,29.667 14.917 C 29.392 15.316,29.167 15.709,29.167 15.790 C 29.167 15.871,29.035 16.086,28.875 16.269 C 28.570 16.615,28.336 16.993,27.771 18.046 C 27.586 18.392,27.299 18.820,27.134 18.997 C 26.968 19.174,26.833 19.383,26.833 19.460 C 26.833 19.707,26.421 20.497,26.292 20.499 C 26.223 20.499,26.167 20.616,26.167 20.757 C 26.167 20.898,26.017 21.175,25.833 21.372 C 25.650 21.569,25.500 21.832,25.500 21.957 C 25.500 22.308,24.738 23.347,24.584 23.207 C 24.508 23.139,24.494 23.166,24.551 23.267 C 24.609 23.368,24.548 23.593,24.417 23.767 C 24.285 23.941,24.175 24.205,24.172 24.355 C 24.169 24.504,24.051 24.722,23.909 24.839 C 23.768 24.957,23.469 25.453,23.245 25.943 C 23.021 26.433,22.762 26.833,22.669 26.833 C 22.576 26.833,22.500 26.983,22.500 27.167 C 22.500 27.350,22.434 27.500,22.353 27.500 C 22.272 27.500,22.165 27.654,22.116 27.843 C 22.046 28.109,22.074 28.146,22.242 28.007 C 22.429 27.852,23.000 28.392,23.000 28.723 C 23.000 28.761,23.600 30.043,24.333 31.573 C 25.067 33.103,25.667 34.378,25.667 34.407 C 25.667 34.436,26.117 35.409,26.667 36.570 C 27.217 37.730,27.667 38.706,27.667 38.740 C 27.667 38.773,27.959 39.426,28.315 40.192 C 28.870 41.382,30.740 45.492,31.867 48.000 C 32.053 48.413,32.359 49.087,32.547 49.500 C 32.735 49.913,33.249 51.075,33.689 52.083 C 34.570 54.102,34.848 54.431,35.240 53.913 C 35.377 53.732,35.493 53.471,35.498 53.333 C 35.503 53.196,35.654 52.896,35.833 52.667 C 36.013 52.438,36.161 52.156,36.163 52.042 C 36.165 51.927,36.242 51.833,36.333 51.833 C 36.425 51.833,36.502 51.665,36.504 51.458 C 36.506 51.252,36.654 50.896,36.833 50.667 C 37.013 50.438,37.161 50.156,37.163 50.042 C 37.165 49.927,37.242 49.833,37.333 49.833 C 37.425 49.833,37.500 49.661,37.500 49.450 C 37.500 49.239,37.568 48.995,37.651 48.908 C 37.964 48.580,38.500 47.477,38.500 47.162 C 38.500 46.981,38.556 46.833,38.625 46.832 C 38.775 46.830,39.167 46.023,39.167 45.717 C 39.167 45.598,39.242 45.500,39.333 45.500 C 39.425 45.500,39.500 45.350,39.500 45.167 C 39.500 44.983,39.561 44.833,39.636 44.833 C 39.808 44.833,40.500 43.548,40.500 43.227 C 40.500 43.095,40.650 42.825,40.833 42.628 C 41.017 42.431,41.168 42.153,41.170 42.010 C 41.172 41.867,41.321 41.563,41.500 41.333 C 41.679 41.104,41.828 40.830,41.830 40.724 C 41.835 40.435,42.542 39.167,42.698 39.167 C 42.772 39.167,42.833 39.056,42.833 38.922 C 42.833 38.787,42.983 38.410,43.167 38.083 C 43.350 37.757,43.500 37.394,43.500 37.276 C 43.500 37.159,43.650 36.902,43.833 36.705 C 44.017 36.508,44.167 36.232,44.167 36.090 C 44.167 35.949,44.233 35.833,44.314 35.833 C 44.395 35.833,44.503 35.702,44.554 35.542 C 44.604 35.381,44.752 35.063,44.881 34.833 C 45.566 33.619,45.700 33.366,45.961 32.792 C 46.117 32.448,46.303 32.167,46.373 32.167 C 46.443 32.167,46.500 32.017,46.500 31.833 C 46.500 31.650,46.575 31.500,46.667 31.500 C 46.758 31.500,46.833 31.350,46.833 31.167 C 46.833 30.983,46.908 30.833,47.000 30.833 C 47.092 30.833,47.168 30.740,47.170 30.625 C 47.172 30.510,47.321 30.229,47.500 30.000 C 47.679 29.771,47.828 29.466,47.830 29.323 C 47.832 29.180,47.983 28.902,48.167 28.705 C 48.350 28.508,48.500 28.232,48.500 28.090 C 48.500 27.949,48.575 27.833,48.667 27.833 C 48.758 27.833,48.833 27.683,48.833 27.500 C 48.833 27.317,48.908 27.167,49.000 27.167 C 49.092 27.167,49.167 27.033,49.167 26.870 C 49.167 26.707,49.317 26.465,49.500 26.333 C 49.683 26.201,49.833 26.012,49.833 25.913 C 49.833 25.635,50.235 24.836,50.375 24.835 C 50.444 24.834,50.500 24.683,50.500 24.500 C 50.500 24.317,50.575 24.167,50.667 24.167 C 50.758 24.167,50.833 24.033,50.833 23.870 C 50.833 23.707,50.983 23.465,51.167 23.333 C 51.350 23.201,51.500 22.996,51.500 22.878 C 51.500 22.759,51.589 22.519,51.698 22.345 C 51.904 22.015,51.661 21.500,51.300 21.500 C 51.213 21.500,50.641 21.210,50.029 20.856 C 45.167 18.041,39.484 15.349,33.989 13.257 C 32.684 12.760,31.564 12.270,31.500 12.167 C 31.426 12.047,31.285 12.132,31.109 12.401 M11.500 48.152 C 11.500 48.343,11.425 48.500,11.333 48.500 C 11.242 48.500,11.167 48.650,11.167 48.833 C 11.167 49.017,11.092 49.167,11.000 49.167 C 10.908 49.167,10.833 49.317,10.833 49.500 C 10.833 49.683,10.758 49.833,10.667 49.833 C 10.575 49.833,10.500 49.931,10.500 50.050 C 10.500 50.357,10.108 51.164,9.958 51.165 C 9.890 51.166,9.833 51.317,9.833 51.500 C 9.833 51.683,9.758 51.833,9.667 51.833 C 9.575 51.833,9.500 51.931,9.500 52.050 C 9.500 52.357,9.108 53.164,8.958 53.165 C 8.890 53.166,8.833 53.317,8.833 53.500 C 8.833 53.683,8.758 53.833,8.667 53.833 C 8.575 53.833,8.498 54.002,8.496 54.208 C 8.494 54.415,8.346 54.771,8.167 55.000 C 7.987 55.229,7.837 55.529,7.833 55.667 C 7.829 55.804,7.679 56.104,7.500 56.333 C 7.321 56.563,7.172 56.913,7.170 57.111 C 7.168 57.310,7.110 57.497,7.042 57.528 C 6.862 57.608,6.167 58.988,6.167 59.266 C 6.167 59.395,6.092 59.500,6.000 59.500 C 5.908 59.500,5.833 59.650,5.833 59.833 C 5.833 60.017,5.758 60.167,5.667 60.167 C 5.575 60.167,5.500 60.317,5.500 60.500 C 5.500 60.683,5.425 60.833,5.333 60.833 C 5.242 60.833,5.167 60.983,5.167 61.167 C 5.167 61.350,5.092 61.500,5.000 61.500 C 4.908 61.500,4.833 61.650,4.833 61.833 C 4.833 62.017,4.758 62.167,4.667 62.167 C 4.575 62.167,4.500 62.264,4.500 62.383 C 4.500 62.690,4.108 63.497,3.958 63.499 C 3.890 63.499,3.833 63.598,3.833 63.717 C 3.833 64.023,3.441 64.830,3.292 64.832 C 3.223 64.833,3.165 65.002,3.163 65.208 C 3.161 65.415,3.013 65.771,2.833 66.000 C 2.654 66.229,2.506 66.585,2.504 66.792 C 2.502 66.998,2.444 67.167,2.375 67.168 C 2.225 67.170,1.833 67.977,1.833 68.283 C 1.833 68.402,1.758 68.500,1.667 68.500 C 1.575 68.500,1.500 68.650,1.500 68.833 C 1.500 69.017,1.425 69.167,1.333 69.167 C 1.242 69.167,1.167 69.317,1.167 69.500 C 1.167 69.683,1.092 69.833,1.000 69.833 C 0.908 69.833,0.833 69.983,0.833 70.167 C 0.833 70.350,0.758 70.500,0.667 70.500 C 0.575 70.500,0.500 70.604,0.500 70.731 C 0.500 70.858,0.388 71.177,0.251 71.439 C -0.165 72.238,0.131 73.232,0.572 72.518 C 0.623 72.436,1.396 71.824,2.290 71.157 C 3.185 70.490,4.179 69.745,4.500 69.501 C 8.676 66.323,17.784 61.212,24.250 58.418 C 24.617 58.260,25.134 58.026,25.401 57.898 C 25.667 57.771,25.949 57.667,26.027 57.667 C 26.106 57.667,26.526 57.509,26.960 57.317 C 28.245 56.747,29.421 56.295,30.667 55.893 C 31.079 55.759,31.567 55.583,31.750 55.500 C 31.933 55.418,32.590 55.182,33.208 54.977 C 33.827 54.771,34.333 54.551,34.333 54.487 C 34.333 54.240,30.910 52.860,27.500 51.732 C 26.813 51.505,26.100 51.256,25.917 51.178 C 25.567 51.029,24.103 50.563,23.250 50.327 C 19.476 49.287,17.822 48.912,13.750 48.171 C 11.581 47.776,11.500 47.776,11.500 48.152 M86.570 65.224 C 86.523 65.348,86.459 65.667,86.428 65.933 C 86.397 66.199,86.357 66.417,86.340 66.417 C 86.322 66.417,86.281 66.559,86.248 66.733 C 86.216 66.907,86.098 67.106,85.987 67.175 C 85.858 67.254,85.823 67.490,85.890 67.823 C 85.967 68.210,85.927 68.372,85.736 68.445 C 85.558 68.513,85.493 68.720,85.527 69.114 C 85.558 69.475,85.488 69.738,85.335 69.832 C 85.202 69.915,85.141 70.030,85.200 70.089 C 85.260 70.148,85.202 70.498,85.072 70.866 C 84.942 71.234,84.880 71.607,84.934 71.696 C 84.989 71.784,84.901 71.952,84.740 72.070 C 84.571 72.194,84.488 72.396,84.546 72.545 C 84.601 72.689,84.547 72.843,84.427 72.889 C 84.308 72.935,84.210 73.223,84.210 73.528 C 84.211 73.834,84.158 74.209,84.093 74.362 C 84.028 74.515,83.958 74.740,83.937 74.862 C 83.917 74.984,83.804 75.260,83.685 75.475 C 83.567 75.691,83.506 76.005,83.550 76.173 C 83.596 76.350,83.524 76.519,83.379 76.575 C 83.178 76.652,83.169 76.719,83.335 76.919 C 83.478 77.091,83.484 77.167,83.354 77.167 C 83.247 77.167,83.167 77.449,83.167 77.823 C 83.167 78.185,83.087 78.530,82.989 78.590 C 82.891 78.651,82.848 78.797,82.893 78.914 C 82.938 79.032,82.863 79.288,82.726 79.484 C 82.589 79.679,82.497 80.007,82.522 80.211 C 82.546 80.416,82.470 80.760,82.352 80.975 C 82.233 81.191,82.175 81.516,82.223 81.697 C 82.286 81.938,82.243 82.001,82.063 81.932 C 81.927 81.880,81.859 81.906,81.911 81.990 C 81.963 82.075,81.937 82.186,81.854 82.238 C 81.770 82.289,81.659 82.219,81.606 82.082 C 81.553 81.945,81.367 81.833,81.192 81.833 C 81.017 81.833,80.771 81.706,80.645 81.551 C 80.490 81.360,80.483 81.309,80.625 81.395 C 80.740 81.463,80.833 81.483,80.833 81.439 C 80.833 81.286,79.793 80.839,79.646 80.929 C 79.566 80.979,79.500 80.915,79.500 80.787 C 79.500 80.658,79.308 80.466,79.074 80.359 C 78.819 80.243,78.696 80.088,78.766 79.974 C 78.839 79.857,78.811 79.827,78.697 79.898 C 78.468 80.039,77.633 79.522,77.760 79.317 C 77.810 79.236,77.740 79.213,77.605 79.265 C 77.458 79.321,77.283 79.217,77.171 79.008 C 77.068 78.815,76.912 78.701,76.825 78.755 C 76.738 78.809,76.667 78.769,76.667 78.667 C 76.667 78.564,76.579 78.535,76.472 78.601 C 76.342 78.681,76.311 78.632,76.380 78.452 C 76.450 78.270,76.411 78.211,76.258 78.270 C 76.135 78.317,75.977 78.264,75.908 78.152 C 75.822 78.013,75.851 77.991,76.000 78.083 C 76.150 78.176,76.178 78.153,76.090 78.011 C 76.020 77.897,75.815 77.843,75.635 77.890 C 75.395 77.953,75.332 77.909,75.402 77.729 C 75.454 77.594,75.428 77.525,75.345 77.576 C 75.262 77.628,75.080 77.557,74.942 77.418 C 74.804 77.280,74.625 77.167,74.544 77.167 C 74.264 77.167,73.339 76.383,73.461 76.249 C 73.528 76.174,73.503 76.159,73.405 76.214 C 73.307 76.270,73.029 76.132,72.788 75.908 C 72.546 75.683,72.232 75.500,72.091 75.500 C 71.949 75.500,71.833 75.426,71.833 75.337 C 71.833 75.247,71.641 75.125,71.407 75.066 C 71.145 75.000,71.013 74.873,71.065 74.738 C 71.117 74.603,71.063 74.550,70.925 74.603 C 70.801 74.651,70.644 74.598,70.574 74.486 C 70.489 74.347,70.518 74.325,70.667 74.417 C 70.801 74.500,70.844 74.486,70.779 74.381 C 70.721 74.287,70.456 74.166,70.190 74.113 C 69.924 74.060,69.603 73.913,69.477 73.786 C 69.350 73.660,69.162 73.585,69.058 73.619 C 68.955 73.654,68.727 73.510,68.553 73.299 C 68.205 72.879,67.824 72.607,67.122 72.277 C 66.869 72.158,66.712 72.010,66.775 71.947 C 66.838 71.885,66.777 71.833,66.640 71.833 C 66.503 71.833,66.213 71.644,65.995 71.412 C 65.778 71.180,65.498 71.029,65.374 71.077 C 65.251 71.124,65.195 71.089,65.251 70.998 C 65.307 70.907,65.248 70.833,65.119 70.833 C 64.990 70.833,64.751 70.685,64.587 70.504 C 64.423 70.323,64.236 70.207,64.172 70.247 C 64.074 70.307,62.808 69.462,62.040 68.824 C 61.924 68.728,61.743 68.703,61.639 68.767 C 61.522 68.840,61.494 68.811,61.567 68.692 C 61.633 68.587,61.604 68.500,61.503 68.500 C 61.180 68.500,59.664 67.392,59.792 67.250 C 59.861 67.175,59.812 67.174,59.683 67.249 C 59.532 67.336,59.372 67.279,59.232 67.087 C 59.006 66.778,58.906 66.927,58.291 68.500 C 58.201 68.729,58.062 69.047,57.981 69.206 C 57.900 69.365,57.833 69.646,57.833 69.831 C 57.833 70.016,57.758 70.167,57.667 70.167 C 57.575 70.167,57.500 70.350,57.500 70.573 C 57.500 70.797,57.425 71.027,57.333 71.083 C 57.242 71.140,57.167 71.333,57.167 71.512 C 57.167 71.691,57.100 71.968,57.019 72.127 C 56.938 72.286,56.799 72.604,56.708 72.833 C 56.618 73.063,56.460 73.456,56.356 73.708 C 55.999 74.572,55.867 74.917,55.667 75.500 C 55.424 76.206,55.179 76.817,54.981 77.206 C 54.900 77.365,54.833 77.610,54.833 77.750 C 54.833 77.890,54.758 78.154,54.667 78.336 C 54.575 78.518,54.425 78.816,54.333 78.998 C 54.242 79.180,54.167 79.443,54.167 79.583 C 54.167 79.723,54.092 79.987,54.000 80.169 C 53.908 80.351,53.758 80.649,53.667 80.831 C 53.575 81.013,53.500 81.309,53.500 81.488 C 53.500 81.667,53.425 81.860,53.333 81.917 C 53.242 81.973,53.167 82.203,53.167 82.427 C 53.167 82.650,53.092 82.833,53.000 82.833 C 52.908 82.833,52.833 83.016,52.833 83.240 C 52.833 83.464,52.758 83.693,52.667 83.750 C 52.575 83.807,52.500 84.032,52.500 84.250 C 52.500 84.468,52.425 84.693,52.333 84.750 C 52.242 84.807,52.167 85.000,52.167 85.179 C 52.167 85.358,52.100 85.635,52.019 85.794 C 51.938 85.953,51.780 86.308,51.667 86.583 C 51.554 86.858,51.395 87.214,51.314 87.373 C 51.233 87.532,51.167 87.801,51.167 87.970 C 51.167 88.139,51.115 88.329,51.052 88.392 C 50.942 88.502,50.508 89.651,50.503 89.846 C 50.499 89.995,51.492 89.814,51.595 89.647 C 51.645 89.566,51.902 89.500,52.167 89.500 C 52.431 89.500,52.693 89.425,52.750 89.333 C 52.807 89.242,53.032 89.167,53.250 89.167 C 53.468 89.167,53.693 89.092,53.750 89.000 C 53.807 88.908,54.069 88.833,54.333 88.833 C 54.598 88.833,54.860 88.758,54.917 88.667 C 54.973 88.575,55.198 88.500,55.417 88.500 C 55.635 88.500,55.860 88.425,55.917 88.333 C 55.973 88.242,56.236 88.167,56.500 88.167 C 56.764 88.167,57.027 88.092,57.083 88.000 C 57.140 87.908,57.402 87.833,57.667 87.833 C 57.931 87.833,58.193 87.758,58.250 87.667 C 58.307 87.575,58.607 87.500,58.917 87.500 C 59.227 87.500,59.527 87.425,59.583 87.333 C 59.640 87.242,59.907 87.167,60.177 87.167 C 60.446 87.167,60.667 87.092,60.667 87.000 C 60.667 86.908,60.925 86.833,61.240 86.833 C 61.556 86.833,61.860 86.758,61.917 86.667 C 61.973 86.575,62.311 86.500,62.667 86.500 C 63.023 86.500,63.360 86.425,63.417 86.333 C 63.473 86.242,63.773 86.167,64.083 86.167 C 64.393 86.167,64.693 86.092,64.750 86.000 C 64.807 85.908,65.069 85.833,65.333 85.833 C 65.598 85.833,65.860 85.758,65.917 85.667 C 65.973 85.575,66.353 85.500,66.760 85.500 C 67.167 85.500,67.500 85.425,67.500 85.333 C 67.500 85.242,67.785 85.167,68.133 85.167 C 68.482 85.167,68.838 85.099,68.925 85.017 C 69.012 84.935,69.402 84.822,69.792 84.767 C 70.181 84.712,70.819 84.621,71.208 84.566 C 71.598 84.511,71.988 84.399,72.075 84.316 C 72.162 84.234,72.503 84.167,72.833 84.167 C 73.163 84.167,73.505 84.099,73.592 84.015 C 73.679 83.932,74.125 83.825,74.583 83.776 C 75.042 83.728,75.829 83.603,76.333 83.499 C 76.837 83.395,77.662 83.271,78.167 83.223 C 78.671 83.176,79.155 83.069,79.242 82.985 C 79.329 82.902,79.820 82.833,80.333 82.833 C 80.847 82.833,81.354 82.746,81.461 82.639 C 81.567 82.533,82.005 82.459,82.433 82.475 C 82.860 82.491,83.294 82.435,83.397 82.350 C 83.499 82.265,84.146 82.154,84.833 82.103 C 85.521 82.051,86.796 81.930,87.667 81.832 C 88.537 81.734,90.225 81.593,91.417 81.518 C 92.608 81.444,93.733 81.340,93.917 81.287 C 94.100 81.235,96.950 81.186,100.250 81.179 L 106.250 81.166 105.814 80.791 C 105.574 80.585,104.655 79.823,103.772 79.096 C 102.889 78.370,102.167 77.714,102.167 77.638 C 102.167 77.562,102.073 77.498,101.958 77.495 C 101.844 77.493,101.390 77.157,100.951 76.748 C 100.512 76.340,99.874 75.799,99.534 75.546 C 99.195 75.294,98.804 74.969,98.667 74.826 C 98.529 74.682,98.246 74.448,98.038 74.306 C 97.830 74.163,97.380 73.791,97.038 73.477 C 96.696 73.164,96.079 72.647,95.667 72.329 C 95.254 72.010,94.804 71.635,94.667 71.494 C 94.529 71.353,93.817 70.753,93.083 70.161 C 92.350 69.569,91.610 68.972,91.440 68.834 C 91.269 68.696,91.044 68.508,90.940 68.416 C 90.835 68.324,90.337 67.911,89.833 67.499 C 89.329 67.087,88.892 66.694,88.861 66.625 C 88.831 66.556,88.718 66.498,88.611 66.495 C 88.504 66.493,88.056 66.155,87.615 65.745 C 86.727 64.920,86.693 64.904,86.570 65.224 " stroke="none" fill="#fbcb04" fill-rule="evenodd"></path><path id="path4" d="M58.288 10.625 C 58.159 10.877,57.656 11.721,57.171 12.500 C 56.686 13.279,56.159 14.142,56.000 14.417 C 55.841 14.692,55.326 15.541,54.856 16.304 C 54.385 17.067,54.000 17.715,54.000 17.745 C 54.000 17.775,53.691 18.308,53.313 18.930 C 52.452 20.347,51.833 21.453,51.833 21.574 C 51.833 21.625,53.727 21.666,56.042 21.666 C 59.957 21.665,61.532 21.754,65.167 22.181 C 68.702 22.597,72.417 23.235,74.927 23.858 C 76.872 24.340,76.942 23.943,75.167 22.498 C 74.662 22.087,74.150 21.656,74.027 21.540 C 73.905 21.424,73.531 21.123,73.198 20.872 C 72.864 20.622,72.372 20.210,72.104 19.958 C 71.836 19.706,71.550 19.500,71.468 19.500 C 71.385 19.500,71.136 19.318,70.913 19.095 C 70.690 18.872,70.225 18.479,69.879 18.221 C 69.533 17.963,69.212 17.710,69.167 17.660 C 69.121 17.609,68.821 17.387,68.500 17.167 C 68.179 16.946,67.879 16.721,67.833 16.667 C 67.787 16.612,67.487 16.387,67.167 16.167 C 66.846 15.946,66.546 15.721,66.500 15.667 C 66.454 15.612,66.154 15.387,65.833 15.167 C 65.512 14.946,65.212 14.721,65.167 14.667 C 65.121 14.612,64.821 14.385,64.500 14.163 C 64.179 13.941,63.771 13.626,63.594 13.463 C 63.416 13.300,63.172 13.167,63.052 13.167 C 62.932 13.167,62.833 13.104,62.833 13.028 C 62.833 12.952,62.627 12.783,62.375 12.653 C 62.123 12.523,61.771 12.285,61.594 12.125 C 61.416 11.965,61.172 11.833,61.052 11.833 C 60.932 11.833,60.833 11.775,60.833 11.703 C 60.833 11.631,60.611 11.441,60.339 11.280 C 60.068 11.120,59.746 10.897,59.625 10.786 C 59.389 10.570,58.720 10.167,58.598 10.167 C 58.557 10.167,58.418 10.373,58.288 10.625 M77.167 24.524 C 77.167 24.919,77.257 25.114,78.535 27.491 C 79.179 28.689,79.874 29.997,81.459 33.000 C 81.870 33.779,82.413 34.792,82.665 35.250 C 83.096 36.034,83.636 37.062,86.165 41.917 C 87.466 44.414,88.801 46.959,89.855 48.951 C 90.301 49.795,90.667 50.633,90.667 50.812 C 90.667 50.992,90.736 51.164,90.821 51.194 C 90.905 51.225,91.300 51.550,91.698 51.917 C 92.095 52.283,93.282 53.371,94.335 54.333 C 95.388 55.296,96.439 56.271,96.672 56.500 C 96.904 56.729,97.654 57.440,98.339 58.079 C 99.023 58.718,101.560 61.154,103.977 63.493 C 109.678 69.010,109.500 68.909,109.500 66.646 C 109.500 65.993,109.572 65.500,109.667 65.500 C 109.763 65.500,109.833 64.976,109.833 64.260 C 109.833 63.578,109.908 62.973,110.000 62.917 C 110.092 62.860,110.167 62.363,110.167 61.813 C 110.167 61.262,110.234 60.685,110.317 60.531 C 110.400 60.376,110.492 59.651,110.523 58.920 L 110.578 57.590 110.081 57.436 C 109.807 57.352,109.208 57.115,108.750 56.910 C 108.292 56.704,107.617 56.406,107.250 56.248 C 106.883 56.090,106.358 55.863,106.083 55.744 C 105.808 55.625,105.246 55.402,104.833 55.248 C 104.421 55.095,103.933 54.909,103.750 54.835 C 103.567 54.761,103.154 54.610,102.833 54.500 C 102.513 54.390,102.100 54.236,101.917 54.158 C 101.733 54.081,101.058 53.853,100.417 53.653 C 99.775 53.453,99.100 53.233,98.917 53.164 C 98.733 53.095,98.246 52.946,97.833 52.833 C 97.421 52.720,96.896 52.570,96.667 52.500 C 96.223 52.364,95.283 52.113,94.125 51.822 C 93.735 51.724,93.192 51.581,92.917 51.505 C 92.642 51.428,92.138 51.317,91.798 51.259 C 91.064 51.134,90.945 50.990,91.146 50.471 C 91.229 50.258,91.466 49.521,91.672 48.833 C 91.878 48.146,92.176 47.171,92.334 46.667 C 92.492 46.163,92.717 45.413,92.833 45.000 C 93.021 44.334,93.326 43.343,93.837 41.738 C 93.927 41.457,94.000 41.104,94.000 40.955 C 94.000 40.805,94.123 40.614,94.273 40.530 C 94.564 40.367,90.803 36.469,87.007 33.000 C 86.054 32.129,84.781 30.938,84.179 30.354 C 83.576 29.769,82.822 29.094,82.503 28.854 C 82.184 28.613,81.537 28.034,81.066 27.566 C 80.594 27.098,79.917 26.498,79.562 26.232 C 79.207 25.967,78.654 25.488,78.333 25.167 C 77.306 24.142,77.167 24.064,77.167 24.524 M100.742 46.814 C 101.105 47.191,101.429 47.500,101.463 47.500 C 101.601 47.500,100.727 46.527,100.417 46.334 C 100.233 46.221,100.380 46.436,100.742 46.814 " stroke="none" fill="#84838b" fill-rule="evenodd"></path></g></svg>